<ttFont>
          <CharString index="0">
            rmoveto
            -21 27 -44 40 -37 14 -32 -19 -33 -43 -20 -41 22 -31 -10 callsubr
            33 22 34 43 15 38 rrcurveto
            return
          </CharString>
          <CharString index="1">
            114 -62 -102 callgsubr
            return
          </CharString>
          <CharString index="2">
            -86 callgsubr
            75 rlineto
            return
          </CharString>
          <CharString index="3">
            -131 29 -91 -91 -100 vvcurveto
            -133 156 -87 106 18 15 2 5 15 vhcurveto
            -136 109 rmoveto
            -82 callsubr
            -70 vlineto
            -46 callsubr
            return
          </CharString>
          <CharString index="4">
            -42 57 -75 rlineto
            return
          </CharString>
          <CharString index="5">
            30 114 rmoveto
            -68 66 -77 120 18 vhcurveto
            106 69 24 -44 42 -28 36 -1 rlinecurve
            132 74 335 callsubr
            -21 -15 -2 -15 hhcurveto
            -16 -9 10 14 hvcurveto
            205 vlineto
            59 -2 27 -10 16 vhcurveto
            48 -34 -52 25 -55 hhcurveto
            -55 -123 -24 -32 -83 hvcurveto
            -6 -50 7 -56 16 -45 98 2 rcurveline
            24 110 14 6 23 5 19 1 rlinecurve
            25 -13 21 -25 -63 vvcurveto
            -82 vlineto
            -190 -4 rlineto
            -57 -29 -24 -48 -41 vvcurveto
            return
          </CharString>
          <CharString index="6">
            -519 -94 callgsubr
            return
          </CharString>
          <CharString index="7">
            -107 callsubr
            endchar
          </CharString>
          <CharString index="8">
            -91 callgsubr
            -57 75 rlineto
            return
          </CharString>
          <CharString index="9">
            511 -96 callgsubr
            return
          </CharString>
          <CharString index="10">
            -72 -97 callgsubr
            return
          </CharString>
          <CharString index="11">
            hstem
            11 190 285 190 vstem
            11 326 rmoveto
            -229 161 -117 176 171 157 112 230 230 -156 130 -179 -184 -146 -138 -218 vhcurveto
            317 259 rmoveto
            109 49 -131 -135 -105 -30 -89 -43 -40 hvcurveto
            -5 -14 -14 -3 -19 hhcurveto
            -107 -58 111 158 109 28 83 37 34 hvcurveto
            8 20 21 5 21 hhcurveto
            return
          </CharString>
          <CharString index="12">
            -161 -15 325 callgsubr
            81.5 105.5 83 hstem
            11 167 150 156 vstem
            239 417 rmoveto
            47 -2 34 -46 8 -53 -150 -9 rcurveline
            8 45 20 44 33 21 rrcurveto
            208 -283 rmoveto
            -25 -47 -38 -13 -42 hhcurveto
            -78 -59 47 88 -9 hvcurveto
            252 -2 58 58 rlineto
            153 2 -120 60 -100 hhcurveto
            -134 -121 -109 -157 -167 140 -102 164 23 hvcurveto
            157 89 rlineto
            return
          </CharString>
          <CharString index="13">
            vlineto
            -104 callgsubr
            return
          </CharString>
          <CharString index="14">
            -101 callgsubr
            hstemhm
            return
          </CharString>
          <CharString index="15">
            94 -20 100 529 53 -32 32 hstemhm
            84 181 273 125 hintmask 10111000
            8 662 rmoveto
            hintmask 11011000
            276 callgsubr
            -296 vlineto
            -218 135 -103 175 149 120 77 233 vhcurveto
            hintmask 10111000
            0 callgsubr
            hintmask 11011000
            -1 -53 83 -13 rlineto
            -306 vlineto
            -89 -14 -64 -29 -32 vhcurveto
            -16 -22 -26 -9 -35 hhcurveto
            -85 -62 54 127 hvcurveto
            hintmask 10111000
            40 callsubr
            return
          </CharString>
          <CharString index="16">
            -67 48 rlineto
            return
          </CharString>
          <CharString index="17">
            85 -111 59 57 72 39 52 -5 rlinecurve
            6 -6 4 -9 -11 vvcurveto
            -35 -27 -41 -51 -31 vhcurveto
            -46 -3 -50 -21 -34 -30 90 -135 rcurveline
            return
          </CharString>
          <CharString index="18">
            46 22 rlineto
            return
          </CharString>
          <CharString index="19">
            -75 callgsubr
            -39 -40 -23 -114 -14 vhcurveto
            return
          </CharString>
          <CharString index="20">
            rmoveto
            39 -28 -7 -51 -38 -50 52 -37 rcurveline
            70 43 97 149 -118 55 -97 -44 rcurveline
            endchar
          </CharString>
          <CharString index="21">
            8 -19 -22 4 -21 hhcurveto
            -83 -91 -58 -116 -114 87 -116 204 -114 hvcurveto
            61 82 rlineto
            return
          </CharString>
          <CharString index="22">
            0 -21 511 -101 callgsubr
            return
          </CharString>
          <CharString index="23">
            69 0 256 -84 84 hstemhm
            -20 762 hintmask 10100000
            -77 callsubr
            hintmask 01100000
            40 105 336 callsubr
            hintmask 10100000
            35 -95 -29 -14 -27 -14 -24 -17 rlinecurve
            6 -32 rlineto
            339 hlineto
            1 53 -72 11 -251 622 rlineto
            return
          </CharString>
          <CharString index="24">
            58 0 57.5 194 85.5 231 102 -87 87 -72 72 -61 61 -8 -20 77 callsubr
            174 185 hintmask 1100001110000000
            346 337 rmoveto
            -16 -20 2 5 -20 hvcurveto
            hintmask 1110000110000000
            224 vlineto
            hintmask 1101000110000000
            123 15 rlineto
            35 -29 16 -49 -47 vvcurveto
            hintmask 1100001110000000
            -69 -33 -52 -85 vhcurveto
            -311 325 rmoveto
            hintmask 1100010110000000
            -1 -53 rlineto
            hintmask 1100100110000000
            75 -11 rlineto
            -519 90 callgsubr
            342 hlineto
            1 53 -83 13 rlineto
            185 vlineto
            66 1 132 -252 rlineto
            224 hlineto
            1 53 -61 9 -133 215 rlineto
            80 36 50 70 78 vvcurveto
            112 -104 97 -171 vhcurveto
            return
          </CharString>
          <CharString index="25">
            -41 callsubr
            17 -4 -7 19 hvcurveto
            return
          </CharString>
          <CharString index="26">
            -22 callsubr
            -80 -54 -57 -60 -45 29 -48 77 -52 hvcurveto
            58 40 rlineto
            -68 callgsubr
            return
          </CharString>
          <CharString index="27">
            -72 vvcurveto
            -128 159 -117 124 20 19 3 6 18 vhcurveto
            46 -212 153 62 -108 195 27 20 26 27 15 29 rlinecurve
            -105 126 -101 -43 10 -53 -42 -24 -55 -11 -48 14 rlinecurve
            -8 15 -4 13 14 vvcurveto
            47 42 37 return
          </CharString>
          <CharString index="28">
            -61 -19 87 385 229 -85 85 hstemhm
            51 170 165 178 hintmask 10111000
            343 callgsubr
            82 -38 65 -27 -59 vvcurveto
            -27 -15 -30 -39 -18 vhcurveto
            -37 1 -40 7 -39 14 -65 145 rcurveline
            -81 hlineto
            -13 -52 -9 -96 5 -43 -1 -2 rcurveline
            -40 68 107 -21 76 hhcurveto
            141 120 73 132 122 -94 52 -91 42 hvcurveto
            -85 39 -73 26 55 vvcurveto
            25 13 32 32 18 vhcurveto
            40 -1 39 -6 37 -15 rrcurveto
            hintmask 11011000
            39 -122 rlineto
            92 hlineto
            hintmask 10111000
            14 59 5 77 2 55 rrcurveto
            20 -54 -87 18 -73 hhcurveto
            -157 -112 -82 -123 hvcurveto
            return
          </CharString>
          <CharString index="29">
            127 0 53 -53 67 -67 79 -71 -21 622 53 -32 32 hstemhm
            109 125 326 121.5 hintmask 10000111
            24 32 rmoveto
            6 -32 rlineto
            291 311 callsubr
            hintmask 01000111
            -88 14 rlineto
            248 vlineto
            -14 121 rlineto
            hintmask 00010111
            299 -449 rlineto
            hintmask 10000111
            160 13 5 586 30 13 27 15 23 16 217 callsubr
            -296 hlineto
            hintmask 10001011
            -1 -53 99 -16 rlineto
            -257 vlineto
            14 -125 rlineto
            hintmask 10000111
            -293 450 1 1 rlineto
            -245 hlineto
            hintmask 00101011
            -1 -53 73 -13 rlineto
            -517 vlineto
            hintmask 10000111
            -31 -14 -29 -16 -25 -17 rrcurveto
            return
          </CharString>
          <CharString index="30">
            263 646 rmoveto
            15 -41 -214 -527 -31 -14 -28 -15 -25 -17 rlinecurve
            6 -32 rlineto
            280 hlineto
            1 53 -86 14 rlineto
            return
          </CharString>
          <CharString index="31">
            -18 17 -12 21 22 vvcurveto
            42 41 21 31 -13 vhcurveto
            12 -15 6 -18 -19 vvcurveto
            return
          </CharString>
          <CharString index="32">
            -1 -1 100 330 233 -91 91 -77 77 hstemhm
            32 592 hintmask 10101000
            81 -1 rmoveto
            518 1 rlineto
            3 vlineto
            13 78 9 63 3 79 -106 14 rcurveline
            -53 -134 -214 -8 rlineto
            hintmask 10011000
            368 490 rlineto
            hintmask 10101000
            -39 77 rlineto
            -514 hlineto
            hintmask 11001000
            -6 -67 1 -94 12 -72 rrcurveto
            99 hlineto
            hintmask 10101000
            40 135 196 14 -376 -499 rlineto
            return
          </CharString>
          <CharString index="33">
            -11 300 callgsubr
            23 -20 hstemhm
            90 173 129 173 hintmask 10111000
            319 hmoveto
            2 49 -18 13 -20 10 -20 9 rlinecurve
            279 vlineto
            21 10 21 7 19 89 callsubr
            242 vlineto
            3 223 callgsubr
            212 vlineto
            hintmask 11011000
            117 callsubr
            hintmask 10111000
            -45 -14 -53 -29 -53 -40 rrcurveto
            32 -21 callsubr
            return
          </CharString>
          <CharString index="34">
            55 -34 49 -55 43 vhcurveto
            return
          </CharString>
          <CharString index="35">
            -43 callsubr
            -54 callsubr
            return
          </CharString>
          <CharString index="36">
            100 60 rlineto
            35 -14 15 -33 -28 vvcurveto
            -40 -34 -45 -67 -85 -63 73 124 -58 vhcurveto
            return
          </CharString>
          <CharString index="37">
            hintmask 01011000
            370 hmoveto
            367 callsubr
            -31 19 -41 14 -37 9 rlinecurve
            237 vlineto
            15 11 39 -5 38 -31 30 -25 rlinecurve
            115 145 -23 61 -74 28 -61 -18 rlinecurve
            hintmask 01101000
            -79 -89 rlineto
            18 vlineto
            -54 75 -79 callgsubr
            -331 vlineto
            -25 -9 -26 -11 23 callsubr
            return
          </CharString>
          <CharString index="38">
            74 56 1 -26 -26 -58 -12 -90 -4 hvcurveto
            -19 -48 rlineto
            -1 hlineto
            return
          </CharString>
          <CharString index="39">
            188 -32 rmoveto
            -12 11 -5 18 14 vvcurveto
            41 52 10 48 -1 vhcurveto
            -74 vlineto
            -25 -8 -30 -9 -28 -2 rrcurveto
            return
          </CharString>
          <CharString index="40">
            -14 21 -7 23 19 vvcurveto
            39 29 31 47 -8 122 callgsubr
            return
          </CharString>
          <CharString index="41">
            rmoveto
            36 34 26 24 19 36 118 -82 51 hhcurveto
            41 34 52 94 57 hvcurveto
            -45 38 -87 -71 rlineto
            55 -106 -68 33 -31 hhcurveto
            -39 -36 -52 -87 -58 hvcurveto
            return
          </CharString>
          <CharString index="42">
            225 -47 117 -70 -21 149 31 callsubr
            hintmask 0111010110000000
            113 callgsubr
            hintmask 1011011010000000
            269 callgsubr
            -206 89 183 -116 179 hhcurveto
            70 72 17 35 54 hvcurveto
            hintmask 0110111010000000
            88 -48 -102 callgsubr
            hintmask 1010111010000000
            -277 -468 rmoveto
            -95 -95 39 79 -52 hvcurveto
            44 32 38 callgsubr
            hintmask 0111010110000000
            -125 26 -76 -91 -89 vvcurveto
            -122 141 -75 102 17 15 2 4 13 vhcurveto
            -11 vlineto
            hintmask 1010111010000000
            -33 -46 -67 -20 -71 hhcurveto
            return
          </CharString>
          <CharString index="43">
            rmoveto
            -108 95 -154 -188 87 -68 56 54 59 59 60 48 rlinecurve
            endchar
          </CharString>
          <CharString index="44">
            -8 callsubr
            -291 -30 callgsubr
            return
          </CharString>
          <CharString index="45">
            -330 0 49 -49 68 -68 81 411 -20 hstemhm
            86 173 hintmask 01011000
            315 hmoveto
            367 callsubr
            rlineto
            hintmask 00111000
            -18 13 -20 10 -20 9 rrcurveto
            363 vlineto
            -54 48 -79 callgsubr
            hintmask 01011000
            -325 vlineto
            -25 -9 -26 -11 23 callsubr
            return
          </CharString>
          <CharString index="46">
            rmoveto
            83 35 92 33 84 32 -62 124 rcurveline
            -244 -143 rlineto
            endchar
          </CharString>
          <CharString index="47">
            -107 callgsubr
            -27 callgsubr
            return
          </CharString>
          <CharString index="48">
            19 rmoveto
            -99 callgsubr
            return
          </CharString>
          <CharString index="49">
            hintmask 10001010
            146 32 rmoveto
            6 -32 rlineto
            370 311 callsubr
            hintmask 01001010
            -98 16 rlineto
            517 vlineto
            108 -10 rlineto
            hintmask 10010010
            15 -140 rlineto
            94 hlineto
            hintmask 10000110
            13 66 9 123 -3 43 rrcurveto
            -1 hlineto
            -262 -6 -122 0 -268 6 rrcurveto
            hintmask 10010010
            -5 -43 10 -123 14 -66 rrcurveto
            93 hlineto
            hintmask 00101010
            15 140 109 10 rlineto
            -504 vlineto
            hintmask 10001010
            -35 -15 -36 -16 -27 -19 rrcurveto
            return
          </CharString>
          <CharString index="50">
            100 23 44 54 63 vvcurveto
            return
          </CharString>
          <CharString index="51">
            67 callgsubr
            113 -90 102 -109 -40 -36 -15 -23 -32 vhcurveto
            83 -96 callgsubr
            428 -95 callgsubr
            return
          </CharString>
          <CharString index="52">
            rmoveto
            -77 -14 -38 -40 -59 hhcurveto
            -53 -43 34 82 -41 hvcurveto
            -71 -58 rlineto
            -127 54 98 -64 97 hhcurveto
            107 67 79 107 19 hvcurveto
            endchar
          </CharString>
          <CharString index="53">
            -519 hlineto
            -104 callgsubr
            return
          </CharString>
          <CharString index="54">
            198 -168 hlineto
            -6 0 -5 -2 -5 vhcurveto
            -133 1 -34 -80 return
          </CharString>
          <CharString index="55">
            23 -15 21 -28 -29 -13 -21 -23 -22 13 -22 29 28 15 22 22 vhcurveto
            return
          </CharString>
          <CharString index="56">
            -91 424 55 hstem
            -24 596 vstem
            -24 424 rmoveto
            76 -42 124 -338 32 -10 31 -10 35 -8 rlinecurve
            -70 -38 -75 -28 -79 -24 90 -156 rcurveline
            155 85 75 96 53 132 39 101 31 114 30 106 17 7 17 9 15 10 -3 49 rcurveline
            -205 hlineto
            -16 -104 -27 -119 -25 -100 rrcurveto
            -16 hlineto
            -8 80 -70 243 rlineto
            -1 hlineto
            -224 hlineto
            return
          </CharString>
          <CharString index="57">
            12 -51 127 47 111 140 15 callgsubr
            169 99 hintmask 11101101
            736 -93 callgsubr
            -737 -107 callgsubr
            269 callgsubr
            -80 callgsubr
            hintmask 11011101
            130 -14 callgsubr
            hintmask 11101011
            239 -53 rmoveto
            56 callsubr
            92 67 63 84 95 -90 120 -145 hvcurveto
            68 -111 rmoveto
            25 27 -10 -18 16 hvcurveto
            6 -70 -84 -61 -77 24 rrcurveto
            57 -39 49 78 77 hhcurveto
            return
          </CharString>
          <CharString index="58">
            179 0 -21 35 -21 136 134 42 146 39 4 callsubr
            172 137 hintmask 0111111110000000
            875 -93 callgsubr
            -876 278 callgsubr
            114 8 8 1 1 8 vhcurveto
            hintmask 1011111110000000
            32 callgsubr
            hintmask 0111111110000000
            -2 callsubr
            -175 -275 20 callsubr
            return
          </CharString>
          <CharString index="59">
            202 0 -21 42 -21 302 149 39 -93 callsubr
            64 65 callsubr
            173 136 hintmask 01111110
            22 57 rmoveto
            116 -95 228 172 rlineto
            hintmask 10111111
            -115 vlineto
            -99 callgsubr
            235 vlineto
            49 52 58 39 31 hhcurveto
            21 11 -15 -17 -35 -53 -60 -80 -55 hvcurveto
            hintmask 01111111
            105 -120 rlineto
            102 66 62 78 87 vvcurveto
            105 -89 115 -108 -39 -38 -15 -24 -35 vhcurveto
            78 -96 callgsubr
            439 -47 callsubr
            -898 -107 callgsubr
            64 -144 hlineto
            -71 53 -74 63 -50 vhcurveto
            8 -6 8 -6 7 -5 rrcurveto
            80 81 rmoveto
            -21 -17 7 14 -12 hvcurveto
            206 -14 callgsubr
            201 -236 hlineto
            -25 -22 -29 -14 -32 hhcurveto
            return
          </CharString>
          <CharString index="60">
            hlineto
            -49 callgsubr
            return
          </CharString>
          <CharString index="61">
            -38 -49 -56 -23 -42 3 rrcurveto
            return
          </CharString>
          <CharString index="62">
            -15 callgsubr
            hintmask 11011101
            -53 callsubr
            88 -185 148 -103 149 -22 rlinecurve
            -121 -69 92 -86 279 178 100 -53 -89 callsubr
            533 -96 callgsubr
            -272 -467 173 callgsubr
            hintmask 11101011
            -125 26 -76 -91 -89 vvcurveto
            -122 141 -75 102 17 15 2 4 13 vhcurveto
            -11 vlineto
            hintmask 11011101
            -34 -48 -63 -18 -68 hhcurveto
            endchar
          </CharString>
          <CharString index="63">
            346 0 -21 40 147 -147 161 120 263 callgsubr
            583 134 55 160 hintmask 11011101
            37 callgsubr
            260 -147 rmoveto
            -104 callgsubr
            -1043 -107 callgsubr
            772 -102 -577 239 callgsubr
            hintmask 10111111
            -51 callgsubr
            -100 -33 rlineto
            66 callsubr
            117 hlineto
            return
          </CharString>
          <CharString index="64">
            360 callgsubr
            -176 64 rlineto
            133 55 70 104 95 vvcurveto
            48 -18 60 -41 47 vhcurveto
            140 return
          </CharString>
          <CharString index="65">
            2 49 -28 17 -31 13 -32 9 rlinecurve
            272 62 vlineto
            51 64 -2 49 rlineto
            -112 hlineto
            -61 168 57 -18 51 -30 43 -42 rlinecurve
            return
          </CharString>
          <CharString index="66">
            63 -42 38 87 86 hhcurveto
            18 return
          </CharString>
          <CharString index="67">
            rmoveto
            -21 27 -44 40 -38 15 -31 -19 -33 -44 -21 -41 23 -31 50 -38 33 -13 32 22 36 44 14 38 rrcurveto
            return
          </CharString>
          <CharString index="68">
            -20 267 callsubr
            -6 136 97 4 callsubr
            hintmask 10111110
            718 -59 callgsubr
            -718 -107 callgsubr
            44 -144 hlineto
            hintmask 11011110
            -42 callgsubr
            hintmask 10111110
            0 callsubr
            hintmask 11011110
            -175 -275 -76 callgsubr
            return
          </CharString>
          <CharString index="69">
            126 -14 callgsubr
            297 -95 callgsubr
            -767 129 callsubr
            return
          </CharString>
          <CharString index="70">
            -20 267 callsubr
            26 148 53 4 callsubr
            hintmask 11011110
            718 -59 callgsubr
            -718 hlineto
            -21 -42 57 -75 rlineto
            44 -144 hlineto
            -42 callgsubr
            hintmask 11111110
            159 callsubr
            17 14 -10 -10 8 hvcurveto
            12 -12 82 76 rlineto
            60 -34 -61 143 callsubr
            hintmask 11011110
            -175 -275 -76 callgsubr
            return
          </CharString>
          <CharString index="71">
            -3 callgsubr
            -82 -52 -60 -63 -49 31 -50 84 -57 vhcurveto
            57 47 return
          </CharString>
          <CharString index="72">
            rmoveto
            -99 callgsubr
            2 callgsubr
            hintmask 0110111110000000
            -56 callsubr
            -856 -7 callgsubr
            hintmask 0101011110000000
            -137 30 -84 -89 -100 vvcurveto
            -80 54 -63 66 -39 vhcurveto
            -146 -96 116 -95 219 159 rlineto
            -129 112 24 callsubr
          </CharString>
          <CharString index="73">
            95 0 92 176 78 -78 402 -102 102 -87 87 77 callsubr
            242 189 hintmask 11010110
            424 311 rmoveto
            -6 35 rlineto
            -128 222 hlineto
            hintmask 10001110
            126 15 rlineto
            71 -46 45 -105 -104 vvcurveto
            -116 -55 -120 -120 -20 -23 3 7 -24 vhcurveto
            hintmask 10100110
            166 91 vlineto
            -342 394 rmoveto
            -1 -53 71 -10 rlineto
            hintmask 11000110
            -253 -53 vlineto
            hintmask 10100110
            -43 -43 6 -35 rlineto
            90 -189 hlineto
            -52 callgsubr
            338 hlineto
            240 113 164 173 161 -118 172 -231 -112 -108 -2 -6 -113 hvcurveto
            endchar
          </CharString>
          <CharString index="74">
            172 -243 hlineto
            return
          </CharString>
          <CharString index="75">
            -212 -107 callsubr
            return
          </CharString>
          <CharString index="76">
            -37 8 rlineto
            34 39 vlineto
            18 21 rlineto
            37 vlineto
            -57 -1 rlineto
            190 vlineto
            -85 15 rlineto
            -1 hlineto
            -1 -1 hlineto
            -168 -213 21 -48 rlineto
            136 return
          </CharString>
          <CharString index="77">
            rmoveto
            16 -80 245 callgsubr
            66 32 rcurveline
            return
          </CharString>
          <CharString index="78">
            vvcurveto
            70 -45 83 -113 38 17 callsubr
            return
          </CharString>
          <CharString index="79">
            hlineto
            -8 -19 -5 -21 -22 vvcurveto
            -90 87 -76 122 -32 vhcurveto
            -26 -19 -29 -15 -33 -12 return
          </CharString>
          <CharString index="80">
            -38 -33 -14 -23 -30 hvcurveto
            90 -96 callgsubr
            return
          </CharString>
          <CharString index="81">
            -131 29 -91 -91 -100 vvcurveto
            -133 156 -87 106 18 15 2 5 15 vhcurveto
            103 callgsubr
            return
          </CharString>
          <CharString index="82">
            hintmask 01001100
            33 662 rmoveto
            hintmask 01010100
            -1 -53 rlineto
            hintmask 10100100
            176 callsubr
            hintmask 01001100
            -52 callgsubr
            571 hlineto
            1 hlineto
            12 67 4 109 -2 70 -103 9 rcurveline
            -45 -145 -178 -17 rlineto
            490 -81 callgsubr
            return
          </CharString>
          <CharString index="83">
            rmoveto
            -24 -21 7 12 -14 hvcurveto
            210 vlineto
            138 -202 rlineto
            -19 -22 -28 -8 -29 hhcurveto
            125 159 rmoveto
            -26 -3 -23 -5 -19 vhcurveto
            -135 197 rlineto
            144 -129 hlineto
            return
          </CharString>
          <CharString index="84">
            27 -45 102 9 -5 -90 -122 -41 rlinecurve
            19 -34 129 2 70 62 4 61 rlinecurve
            45 4 -53 44 -81 hhcurveto
            return
          </CharString>
          <CharString index="85">
            115 -1 -112 113 -112 hhcurveto
            return
          </CharString>
          <CharString index="86">
            vlineto
            -54 54 -79 callgsubr
            -331 vlineto
            -25 -9 -26 -11 23 callsubr
            return
          </CharString>
          <CharString index="87">
            rmoveto
            -77 -14 -53 -40 -59 hhcurveto
            -53 -58 34 82 -41 hvcurveto
            -71 -58 rlineto
            -127 54 113 -64 97 hhcurveto
            107 82 79 107 19 hvcurveto
            -163 84 rmoveto
            -20 26 -41 38 -36 15 -31 -18 -31 -43 -20 -38 21 -30 48 -36 32 -13 31 21 33 42 14 36 rrcurveto
            endchar
          </CharString>
          <CharString index="88">
            121 16 329 callgsubr
            return
          </CharString>
          <CharString index="89">
            11 callgsubr
            -115 hlineto
            return
          </CharString>
          <CharString index="90">
            195 callsubr
            6 -6 -242 -161 111 -126 199 153 rlineto
            -153 vlineto
            -99 callgsubr
            return
          </CharString>
          <CharString index="91">
            rmoveto
            44 30 37 51 -17 vhcurveto
            14 -16 7 -38 -31 vvcurveto
            -34 -8 -34 -15 -31 vhcurveto
            -59 32 -20 49 39 vvcurveto
            return
          </CharString>
          <CharString index="92">
            125 75 84 83 85 -80 103 -115 -72 -59 -42 -71 -21 5 -23 13 -25 hvcurveto
            65 -43 rlineto
            -3 -3 0 -3 hhcurveto
            -42 -43 11 19 -37 hvcurveto
            -29 29 -13 37 34 vvcurveto
            return
          </CharString>
          <CharString index="93">
            -87 callgsubr
            244 129 hstemhm
            34 142 -101 160 hintmask 11110100
            -84 callgsubr
            hintmask 11111000
            -123 hlineto
            -3 10 -1 8 10 vvcurveto
            141 213 75 345 381 531 -90 -127 526 vhcurveto
            28 83 rlineto
            196 -736 -527 67 -317 hhcurveto
            -413 -173 -111 -141 -32 9 -38 38 -51 hvcurveto
            -117 198 callsubr
            hintmask 11110100
            57 -75 rlineto
            75 -101 callsubr
            endchar
          </CharString>
          <CharString index="94">
            4 -93 callsubr
            return
          </CharString>
          <CharString index="95">
            hhcurveto
            -128 -93 -79 -109 -63 32 -63 60 -50 hvcurveto
            63 33 rlineto
            -11 20 -6 24 20 vvcurveto
            57 48 63 86 77 94 -50 -178 116 vhcurveto
            -96 123 callsubr
            endchar
          </CharString>
          <CharString index="96">
            -64 -52 -84 -45 -102 hhcurveto
            -19 -12 2 4 -15 hvcurveto
            -12 10 -7 18 15 vvcurveto
            44 53 33 78 -28 vhcurveto
            return
          </CharString>
          <CharString index="97">
            50 -37 33 -13 return
          </CharString>
          <CharString index="98">
            652 538 rmoveto
            190 callsubr
            return
          </CharString>
          <CharString index="99">
            -72 vlineto
            -106 callsubr
            return
          </CharString>
          <CharString index="100">
            hstemhm
            371 121 -89 127 94 160 return
          </CharString>
          <CharString index="101">
            4 0 -21 35 -21 497 62 callgsubr
            146 160 hintmask 10111100
            430 19 rmoveto
            -104 callgsubr
            -701 -107 callgsubr
            125 hlineto
            3 -157 317 callgsubr
            37 rlineto
            320 334 callgsubr
            -308 hlineto
            hintmask 01111100
            -321 -237 rlineto
            hintmask 10111100
            111 -83 210 163 rlineto
            return
          </CharString>
          <CharString index="102">
            hhcurveto
            -113 -64 -77 -86 -62 34 -65 61 -48 hvcurveto
            62 33 rlineto
            -19 27 -8 26 22 vvcurveto
            47 36 37 53 86 48 -101 -102 36 vhcurveto
            -108 123 callsubr
            endchar
          </CharString>
          <CharString index="103">
            -107 callgsubr
            endchar
          </CharString>
          <CharString index="104">
            13 -16 4 -27 -28 vvcurveto
            1 return
          </CharString>
          <CharString index="105">
            112 -116 rlineto
            102 67 64 83 94 vvcurveto
            112 -91 102 -108 -41 -37 -15 -23 -32 vhcurveto
            77 -96 callgsubr
            return
          </CharString>
          <CharString index="106">
            -88 callsubr
            -19 return
          </CharString>
          <CharString index="107">
            196 vlineto
            56 53 50 26 49 hhcurveto
            33 24 -12 -22 20 hvcurveto
            45 59 rlineto
            59 -42 -60 52 -70 hhcurveto
            -35 -35 -14 -22 -32 hvcurveto
            133 -96 callgsubr
            return
          </CharString>
          <CharString index="108">
            329 17 callgsubr
            return
          </CharString>
          <CharString index="109">
            -265 71 120 347 117 hstemhm
            -57 610 -362 148 hintmask 01100000
            503 -59 callgsubr
            -503 -107 callgsubr
            hintmask 11010000
            128 7 callsubr
            rlineto
            129 callgsubr
            91 77 48 62 44 hvcurveto
            -86 133 -49 -79 -106 -47 -88 3 rlinecurve
            53 callgsubr
            return
          </CharString>
          <CharString index="110">
            19 rmoveto
            -99 callsubr
            return
          </CharString>
          <CharString index="111">
            -20 68 117 72 callsubr
            return
          </CharString>
          <CharString index="112">
            vlineto
            -25 -13 -26 -15 -25 -16 2 -55 rcurveline
            74 1 rlineto
            return
          </CharString>
          <CharString index="113">
            -215 130 8 6 8 5 7 5 rlinecurve
            return
          </CharString>
          <CharString index="114">
            -1 callsubr
            -51 return
          </CharString>
          <CharString index="115">
            rmoveto
            53 53 58 61 57 49 -105 77 rcurveline
            -141 -182 rlineto
            288 -58 rmoveto
            53 53 58 61 57 49 -105 77 rcurveline
            -141 -182 rlineto
            endchar
          </CharString>
          <CharString index="116">
            -54 50 -70 -4 -70 -12 -58 -21 rlinecurve
            5 -50 74 -13 rlineto
            return
          </CharString>
          <CharString index="117">
            hlineto
            7 -44 33 -45 74 -50 57 47 rcurveline
            return
          </CharString>
          <CharString index="118">
            47 25 42 34 hvcurveto
            13 -44 rlineto
            -93 -32 -64 -63 -72 vvcurveto
            -94 107 -81 110 58 55 23 42 46 vhcurveto
            -60 119 rlineto
            -31 -38 -67 -35 -44 hhcurveto
            -25 -16 10 20 46 84 37 69 16 hvcurveto
            93 1 vlineto
            -39 callgsubr
            hintmask 0101111010100000
            120 callgsubr
            return
          </CharString>
          <CharString index="119">
            125 -96 callgsubr
            200 48 callgsubr
            401 hlineto
            return
          </CharString>
          <CharString index="120">
            432 rmoveto
            -62 45 27 102 79 -10 rrcurveto
            21 -21 5 -27 -16 vvcurveto
            -42 -34 -42 -59 -46 vhcurveto
            -121 -94 7 -71 rlineto
            hintmask 11110000
            137 -99 rlineto
            32 -23 24 -18 -29 vvcurveto
            -21 -13 -21 -9 -11 vhcurveto
            151 -62 rlineto
            17 19 19 34 36 vvcurveto
            53 -46 38 -58 41 vhcurveto
            -80 57 60 50 rlineto
            hintmask 11101000
            73 60 38 60 62 vvcurveto
            99 -94 143 -141 -102 -50 -75 -63 -50 33 -52 92 -50 vhcurveto
            endchar
          </CharString>
          <CharString index="121">
            rmoveto
            33 36 -10 -20 37 hvcurveto
            -75 vlineto
            -9 -14 -12 -12 -13 -11 -93 141 368 callsubr
            0 7 hhcurveto
            -98 -172 rmoveto
            -34 46 8 63 42 36 98 -144 rcurveline
            -40 -14 -43 0 -31 13 rrcurveto
            endchar
          </CharString>
          <CharString index="122">
            -115 rmoveto
            66 52 1 41 -174 72 120 116 56 205 -9 214 rlinecurve
            -143 38 -1 -90 -6 -104 -23 -95 rlinecurve
            -34 -31 -50 -13 -53 24 -14 63 25 118 42 119 -149 53 rcurveline
            -43 -93 -12 -95 -47 vvcurveto
            -151 127 -89 97 -18 vhcurveto
            -15 -24 -18 -21 -20 -19 -69 42 rcurveline
            -47 -21 rlineto
            hintmask 11111000
            -12 -155 rlineto
            hintmask 01111000
            49 -17 72 8 44 17 rrcurveto
            endchar
          </CharString>
          <CharString index="123">
            101 callsubr
            69 callgsubr
            return
          </CharString>
          <CharString index="124">
            vhcurveto
            -181 -18 callgsubr
            46 vhcurveto
            return
          </CharString>
          <CharString index="125">
            148 83 160 return
          </CharString>
          <CharString index="126">
            rmoveto
            -19 13 -6 18 15 vvcurveto
            19 10 19 17 17 vhcurveto
            104 -64 rlineto
            -23 -29 -38 -14 -39 hhcurveto
            165 160 rmoveto
            3 -30 -9 -30 -17 -25 -97 59 rcurveline
            35 18 43 11 45 -2 2 -6 rcurveline
            endchar
          </CharString>
          <CharString index="127">
            rmoveto
            -21 -17 7 14 -13 hvcurveto
            206 -14 callgsubr
            201 -237 hlineto
            -24 -22 -28 -14 -32 hhcurveto
            return
          </CharString>
          <CharString index="128">
            -3 0 -4 -1 -3 vhcurveto
            return
          </CharString>
          <CharString index="129">
            384 272 rmoveto
            -64 -49 77 -106 rlineto
            97 43 50 45 135 vvcurveto
            150 -96 callgsubr
            162 -95 callgsubr
            return
          </CharString>
          <CharString index="130">
            -23 -13 2 -35 rcurveline
            return
          </CharString>
          <CharString index="131">
            rmoveto
            57 -39 27 88 86 hhcurveto
            18 18 196 callsubr
            -37 -47 -50 -20 -42 3 rrcurveto
            endchar
          </CharString>
          <CharString index="132">
            73 callsubr
            100 56 87 callsubr
            return
          </CharString>
          <CharString index="133">
            rmoveto
            -49 -28 -27 -34 -32 -30 22 55 -5 vhcurveto
            -98 -5 rlineto
            -113 7 83 -52 82 hhcurveto
            86 78 55 110 2 hvcurveto
            endchar
          </CharString>
          <CharString index="134">
            89 122 -183 -62 callgsubr
            -300 -83 callgsubr
            29 -200 -124 110 hlineto
            return
          </CharString>
          <CharString index="135">
            152 51 rlineto
            -58 -3 -60 -47 -77 hhcurveto
            -83 -93 54 96 -61 hvcurveto
            return
          </CharString>
          <CharString index="136">
            44 -63 46 -49 47 -36 rrcurveto
            -22 -23 -11 -29 -29 vvcurveto
            -83 91 -84 126 -41 vhcurveto
            150 46 rlineto
            -59 -69 -31 -64 -91 -79 60 87 -58 vhcurveto
            -64 -57 rlineto
            -150 100 122 -68 114 hhcurveto
            124 74 81 86 69 -47 85 -108 29 hvcurveto
            -172 -42 rlineto
            -14 10 -8 14 14 vvcurveto
            17 12 18 22 10 vhcurveto
            -12 34 34 -5 34 hhcurveto
            return
          </CharString>
          <CharString index="137">
            -23 -6 -28 -12 -17 -11 3 -15 rcurveline
            65 164 rmoveto
            -37 vlineto
            -66 -1 79 110 rlineto
            endchar
          </CharString>
          <CharString index="138">
            104 139 112 7 -93 callsubr
            198 158 6 136 152 160 return
          </CharString>
          <CharString index="139">
            -20 68 29 callgsubr
            return
          </CharString>
          <CharString index="140">
            rmoveto
            -21 28 -45 41 -39 16 -34 -19 -34 -46 -21 -43 23 -32 52 -39 35 -14 34 23 35 46 15 39 rrcurveto
            endchar
          </CharString>
          <CharString index="141">
            hintmask 10010000
            329 hmoveto
            2 49 rlineto
            hintmask 00110000
            122 callsubr
            rrcurveto
            603 vlineto
            9 callsubr
            hintmask 01010000
            -568 vlineto
            return
          </CharString>
          <CharString index="142">
            100 -161 17 -26 12 -17 19 -12 rlinecurve
            171 hlineto
            8 47 -22 12 -12 12 -12 11 rlinecurve
            -125 176 146 179 -47 67 -70 -2 -74 -13 -58 -21 rlinecurve
            return
          </CharString>
          <CharString index="143">
            71 51 102 51 64 6 rrcurveto
            17 -16 9 -25 -20 vvcurveto
            -51 -59 -70 -100 -18 vhcurveto
            -50 52 -46 -9 -50 -151 29 -20 58 -15 48 -4 rlinecurve
            239 -167 69 54 return
          </CharString>
          <CharString index="144">
            hlineto
            138 callgsubr
            return
          </CharString>
          <CharString index="145">
            rmoveto
            6 -74 rlineto
            365 hlineto
            47 46 -5 53 rlineto
            -300 254 callsubr
            return
          </CharString>
          <CharString index="146">
            -192 vlineto
            -106 callsubr
            return
          </CharString>
          <CharString index="147">
            322 -81 callgsubr
            return
          </CharString>
          <CharString index="148">
            rmoveto
            -39 50 -24 30 48 vvcurveto
            hintmask 01100000
            47 callgsubr
            hintmask 10100000
            80 callsubr
            rrcurveto
            hintmask 01100000
            76 -125 3 -8 3 -7 3 -8 rlinecurve
            71 hlineto
            endchar
          </CharString>
          <CharString index="149">
            65 -53 53 -32 32 77 callsubr
            return
          </CharString>
          <CharString index="150">
            -75 callgsubr
            -33 -28 -21 -77 -15 vhcurveto
            38 -38 -44 10 -85 263 callsubr
            return
          </CharString>
          <CharString index="151">
            -56 rmoveto
            119 24 19 41 -102 268 19 44 18 67 -2 48 rlinecurve
            -149 51 -36 -37 29 -122 rlineto
            hintmask 11100000
            -36 -79 -90 -13 -39 56 -10 75 34 101 58 131 -149 61 rcurveline
            -53 -97 -31 -101 -70 vvcurveto
            -84 45 -78 61 -50 vhcurveto
            -40 47 54 -22 48 hhcurveto
            38 39 13 26 31 hvcurveto
            endchar
          </CharString>
          <CharString index="152">
            9 319 rmoveto
            -158 96 -196 287 15 vhcurveto
            222 88 rlineto
            170 vlineto
            76 19 -1 47 rlineto
            -327 hlineto
            -6 -33 28 -19 34 -16 33 -15 rlinecurve
            return
          </CharString>
          <CharString index="153">
            120 -26 rlineto
            47 -10 18 -17 -20 vvcurveto
            -38 -72 -23 -88 19 vhcurveto
            -64 75 -48 -10 -45 -154 30 -25 52 -20 45 -6 rlinecurve
            201 -212 98 99 return
          </CharString>
          <CharString index="154">
            hlineto
            -17 383 -338 -249 -37 239 -89 -10 rcurveline
            12 -387 336 199 35 -175 rrcurveto
            return
          </CharString>
          <CharString index="155">
            162 callgsubr
            210 vmoveto
            -41 callgsubr
            endchar
          </CharString>
          <CharString index="156">
            168 51 rlineto
            -61 -5 -73 -44 -77 hhcurveto
            -96 -87 62 98 -64 hvcurveto
            return
          </CharString>
          <CharString index="157">
            -45 -140 vlineto
            -130 -60 -60 -66 -87 102 -90 140 -44 hvcurveto
            return
          </CharString>
          <CharString index="158">
            -72 vlineto
            -99 callgsubr
            return
          </CharString>
          <CharString index="159">
            3 -18 -19 2 -19 hhcurveto
            -171 -95 -125 -138 -133 84 -120 139 2 hvcurveto
            114 85 22 -50 45 -34 40 -1 rlinecurve
            133 74 return
          </CharString>
          <CharString index="160">
            -77 -77 -140 -31 -75 33 rrcurveto
            -18 19 -8 21 19 vvcurveto
            47 46 37 92 vhcurveto
            return
          </CharString>
          <CharString index="161">
            -98 -16 98 -98 250 -59 59 268 -20 return
          </CharString>
          <CharString index="162">
            276 callsubr
            93 callgsubr
            return
          </CharString>
          <CharString index="163">
            -108 -58 -76 -84 -116 125 -86 117 return
          </CharString>
          <CharString index="164">
            hintmask 1111111010000000
            354 callsubr
            53 callsubr
            224 callsubr
            218 -47 callsubr
            -630 50 callgsubr
            hvcurveto
            hintmask 1111111001000000
            return
          </CharString>
          <CharString index="165">
            219 476 rmoveto
            66 323 callgsubr
            4 -45 -25 -43 -63 -38 rrcurveto
            -20 18 -12 22 27 vvcurveto
            -134 52 rmoveto
            -60 33 -56 52 -46 vhcurveto
            return
          </CharString>
          <CharString index="166">
            21 -39 -48 12 -55 hhcurveto
            -145 -92 -85 -93 -66 45 -61 83 -28 hvcurveto
            -41 -25 -38 -33 -35 -36 21 -74 rcurveline
            18 -1 17 -1 18 -1 rrcurveto
            return
          </CharString>
          <CharString index="167">
            -19 -26 -11 -31 -31 vvcurveto
            -71 54 -62 62 -38 vhcurveto
            -31 49 56 -17 50 hhcurveto
            return
          </CharString>
          <CharString index="168">
            128 9 -93 callsubr
            33 135 178 144 -56 118 return
          </CharString>
          <CharString index="169">
            310 rmoveto
            -73 -64 -66 -103 30 vhcurveto
            -21 23 -10 28 28 vvcurveto
            72 65 79 103 -37 vhcurveto
            20 -25 10 -30 -29 vvcurveto
            141 -51 rmoveto
            139 -134 147 -138 -102 -112 -79 -129 -149 150 -127 135 110 91 83 115 vhcurveto
            endchar
          </CharString>
          <CharString index="170">
            rmoveto
            -28 41 -41 38 -44 23 -40 -29 -34 -43 -25 -48 30 -37 44 -34 45 -20 38 27 34 40 21 42 rrcurveto
            54 -660 rmoveto
            2 49 return
          </CharString>
          <CharString index="171">
            -26 callgsubr
            42 callgsubr
            240 callsubr
            183 -95 callgsubr
            -401 95 callgsubr
            return
          </CharString>
          <CharString index="172">
            169 133 160 return
          </CharString>
          <CharString index="173">
            73 callsubr
            54 41 21 31 27 hvcurveto
            -33 39 46 -19 53 hhcurveto
            100 59 67 79 47 -21 48 -41 40 hvcurveto
            return
          </CharString>
          <CharString index="174">
            -75 75 -38 47 51 vvcurveto
            58 48 32 59 return
          </CharString>
          <CharString index="175">
            -71 callsubr
            endchar
          </CharString>
          <CharString index="176" raw="1">
            9e15210a 0b  
          </CharString>
          <CharString index="177">
            511 18 callgsubr
            return
          </CharString>
          <CharString index="178">
            rmoveto
            -157 hlineto
            79 210 rlineto
            endchar
          </CharString>
          <CharString index="179">
            hstemhm
            44 65 callsubr
            return
          </CharString>
          <CharString index="180">
            160 callgsubr
            152 hhcurveto
            return
          </CharString>
          <CharString index="181">
            rmoveto
            93 57 62 17 72 -74 129 -131 rcurveline
            85 33 -84 242 -80 233 -116 79 -187 -75 rlinecurve
            60 -159 150 55 53 -39 57 -142 rlinecurve
            53 -132 -89 109 -98 121 -94 39 -141 -99 rlinecurve
            endchar
          </CharString>
          <CharString index="182">
            136 151 117 hstem
            -57 531 vstem
            367 -93 callgsubr
            -368 -107 callgsubr
            8 -206 327 callsubr
            212 vlineto
            24 39 -55 97 rlineto
            -374 hlineto
            return
          </CharString>
          <CharString index="183">
            -23 -4 -24 -2 -21 1 rrcurveto
            -131 6 -62 122 128 vvcurveto
            93 29 96 63 52 vhcurveto
            63 1 54 -11 44 -16 rrcurveto
            return
          </CharString>
          <CharString index="184">
            hstemhm
            109 181 return
          </CharString>
          <CharString index="185">
            -107 callgsubr
            341 -52 -131 hlineto
            198 callgsubr
            -45 29 -49 50 -40 hvcurveto
            -39 -29 -24 -42 -54 vvcurveto
            -173 222 -100 210 -39 vhcurveto
            31 100 rlineto
            -150 32 -153 35 104 vvcurveto
            67 67 17 70 vhcurveto
            return
          </CharString>
          <CharString index="186">
            358 -83 -78 hlineto
            -179 -71 -109 -102 -171 200 -147 166 hvcurveto
            return
          </CharString>
          <CharString index="187">
            -96 129 -114 41 -150 -94 85 -163 rcurveline
            117 77 68 -8 58 -97 return
          </CharString>
          <CharString index="188">
            hintmask 01110000
            321 413 rmoveto
            52 -9 -110 -146 rlineto
            429 vlineto
            -54 50 -2 -1 rlineto
            1 vlineto
            -70 -4 -70 -12 -58 -21 5 -50 rcurveline
            76 -14 rlineto
            -567 169 callgsubr
            247 210 hlineto
            return
          </CharString>
          <CharString index="189">
            20 callsubr
            16 -236 -107 callsubr
            return
          </CharString>
          <CharString index="190">
            106 -79 258 169 55 -210 141 58 -109 195 31 20 30 29 16 296 callgsubr
            rlineto
            return
          </CharString>
          <CharString index="191">
            hhcurveto
            -132 -99 -76 -115 -96 332 callgsubr
            hvcurveto
            221 callgsubr
            return
          </CharString>
          <CharString index="192">
            -42 rlineto
            -18 14 -6 15 12 vvcurveto
            25 26 17 47 vhcurveto
            return
          </CharString>
          <CharString index="193">
            -61 2 -69 -43 -73 hhcurveto
            -91 -87 60 110 -71 hvcurveto
            return
          </CharString>
          <CharString index="194">
            71 78 48 -21 45 -40 39 hvcurveto
            return
          </CharString>
          <CharString index="195">
            24 32 rmoveto
            6 -32 rlineto
            338 hlineto
            1 53 -79 13 rlineto
            177 vlineto
            29 31 195 -274 rlineto
            231 hlineto
            1 53 -61 12 -248 334 179 189 32 12 36 15 22 15 217 callsubr
            -265 hlineto
            return
          </CharString>
          <CharString index="196">
            1 rrcurveto
            43 2 25 -34 -61 vvcurveto
            -285 return
          </CharString>
          <CharString index="197">
            -105 callsubr
            -824 6 callgsubr
            -4 0 -4 -1 -3 vhcurveto
            -137 1 -34 -90 259 -255 110 79 rlineto
            28 vlineto
            -142 85 8 6 8 5 7 5 rlinecurve
            280 return
          </CharString>
          <CharString index="198">
            hhcurveto
            -127 -104 -71 -121 -95 64 -84 119 -107 hvcurveto
            82 72 rlineto
            -76 70 -35 46 49 vvcurveto
            56 45 35 60 return
          </CharString>
          <CharString index="199">
            44 394 108 callgsubr
            return
          </CharString>
          <CharString index="200">
            vvcurveto
            -64 60 -58 91 10 vhcurveto
            126 66 -23 51 rlineto
            -80 -46 -55 22 52 vvcurveto
            return
          </CharString>
          <CharString index="201">
            rmoveto
            -19 40 50 -8 39 hhcurveto
            73 70 30 66 42 -29 31 -37 8 hvcurveto
            2 vlineto
            return
          </CharString>
          <CharString index="202">
            -59 callsubr
            511 vlineto
            return
          </CharString>
          <CharString index="203">
            -48 72 -11 -101 -78 hhcurveto
            return
          </CharString>
          <CharString index="204">
            -115 hlineto
            -88 46 rlineto
            return
          </CharString>
          <CharString index="205">
            55 callsubr
            rrcurveto
            endchar
          </CharString>
          <CharString index="206">
            742 0 -21 33 -21 23 -21 94 116 -74 134 26 148 -132 146 -98 -19 callsubr
            118 65 callsubr
            172 137 return
          </CharString>
          <CharString index="207">
            -36 -187 rmoveto
            -21 -24 4 11 -18 hvcurveto
            -35 46 9 63 43 36 101 -150 rcurveline
            -7 -17 -19 -3 -19 hhcurveto
            return
          </CharString>
          <CharString index="208">
            435 702 71 callgsubr
            return
          </CharString>
          <CharString index="209">
            -101 callgsubr
            -85 108 hstemhm
            return
          </CharString>
          <CharString index="210">
            hlineto
            151 callgsubr
            return
          </CharString>
          <CharString index="211">
            -48 -25 -34 -39 -8 -53 22 -42 35 -28 48 -16 43 23 29 34 13 45 -12 45 -40 35 -48 21 rrcurveto
            return
          </CharString>
          <CharString index="212">
            738 294 rmoveto
            -21 27 -44 41 -38 14 -31 -19 -33 -44 -21 -40 23 -32 -10 callsubr
            32 22 36 44 14 37 rrcurveto
            -730 -115 rmoveto
            -167 114 117 -83 125 hhcurveto
            return
          </CharString>
          <CharString index="213">
            -50 callgsubr
            endchar
          </CharString>
          <CharString index="214">
            120 238 callgsubr
            143 -26 callgsubr
            187 166 192 160 vstem
            return
          </CharString>
          <CharString index="215">
            vstem
            -9 25 rmoveto
            -176 -168 99 -84 110 107 129 -109 71 71 -190 183 rlineto
            return
          </CharString>
          <CharString index="216">
            rmoveto
            -18 -18 6 12 -12 hvcurveto
            226 -14 callgsubr
            238 -218 hlineto
            -50 -27 -48 -24 -47 hhcurveto
            return
          </CharString>
          <CharString index="217">
            vvcurveto
            -110 132 -111 164 197 142 158 164 return
          </CharString>
          <CharString index="218">
            135 callsubr
            33 rcurveline
            return
          </CharString>
          <CharString index="219">
            -178 -60 -106 -91 return
          </CharString>
          <CharString index="220">
            -62 13 -54 -7 -41 -20 131 callgsubr
            return
          </CharString>
          <CharString index="221">
            189 callsubr
            38 24 rlineto
            109 -14 46 73 53 hhcurveto
            14 13 -5 -10 12 hvcurveto
            return
          </CharString>
          <CharString index="222">
            4 callgsubr
            -82 288 callsubr
            -13 -91 -77 hhcurveto
            -75 -36 85 151 -46 hvcurveto
            return
          </CharString>
          <CharString index="223">
            -81 -247 128 119 119 -104 -21 27 -21 156 72 191 142 -135 78 return
          </CharString>
          <CharString index="224">
            57 callgsubr
            rrcurveto
            return
          </CharString>
          <CharString index="225">
            17 292 111 callsubr
            return
          </CharString>
          <CharString index="226">
            -23 23 -11 30 27 vvcurveto
            54 41 54 92 vhcurveto
            return
          </CharString>
          <CharString index="227">
            2 49 -17 12 -18 10 -19 9 rlinecurve
            281 vlineto
            21 10 20 6 18 89 callsubr
            237 vlineto
            2 49 -20 14 -23 12 -23 10 rlinecurve
            211 vlineto
            return
          </CharString>
          <CharString index="228">
            35 14 15 30 27 vvcurveto
            49 -49 44 -73 -43 -52 -15 -18 -27 vhcurveto
            return
          </CharString>
          <CharString index="229">
            -20 14 -26 12 -26 9 return
          </CharString>
          <CharString index="230">
            -107 callgsubr
            67 -101 callsubr
            return
          </CharString>
          <CharString index="231">
            116 32 144 45 141 -120 138 -102 84 4 160 callsubr
            140 -39 147 118 141 102 127 213 130 callsubr
            return
          </CharString>
          <CharString index="232">
            rmoveto
            -19 -25 6 13 -14 hvcurveto
            213 vlineto
            144 -205 rlineto
            -17 -26 -33 -10 -27 hhcurveto
            return
          </CharString>
          <CharString index="233">
            -60 vvcurveto
            -137 156 -106 150 83 86 33 77 70 vhcurveto
            return
          </CharString>
          <CharString index="234">
            -20 -19 6 13 -14 hvcurveto
            226 -14 callgsubr
            return
          </CharString>
          <CharString index="235">
            -173 vlineto
            21 callsubr
            return
          </CharString>
          <CharString index="236">
            -107 callgsubr
            397 hlineto
            return
          </CharString>
          <CharString index="237">
            150 58 160 return
          </CharString>
          <CharString index="238">
            -101 -37 13 -88 -49 -22 -59 -8 -50 24 rlinecurve
            -21 20 -11 31 27 vvcurveto
            52 39 51 211 callsubr
            223 -47 callsubr
            return
          </CharString>
          <CharString index="239">
            -71 -12 -53 -57 -66 vvcurveto
            -82 80 -81 105 -51 vhcurveto
            -64 -52 -83 -45 -103 hhcurveto
            -20 -11 261 callgsubr
          </CharString>
          <CharString index="240">
            hlineto
            8 -38 31 -41 64 -43 58 40 rcurveline
            return
          </CharString>
          <CharString index="241">
            145 -4 -20 24 -20 64 117 hstemhm
            return
          </CharString>
          <CharString index="242">
            rmoveto
            130 callgsubr
            61 return
          </CharString>
          <CharString index="243">
            hlineto
            -62 58 84 -45 75 hhcurveto
            26 24 5 10 23 hvcurveto
            47 -59 74 -59 105 -59 61 82 rcurveline
            285 callsubr
            return
          </CharString>
          <CharString index="244">
            133 callgsubr
            128 82 83 96 77 -54 88 -116 39 hvcurveto
            -182 -42 rlineto
            -19 14 -6 15 12 vvcurveto
            25 27 17 47 vhcurveto
            return
          </CharString>
          <CharString index="245">
            -135 66 rlineto
            92 4 76 51 92 vvcurveto
            75 -51 81 -98 82 vhcurveto
            -191 35 rlineto
            return
          </CharString>
          <CharString index="246">
            31 -15 18 -32 -34 vvcurveto
            -49 -37 -49 -71 -80 -59 63 127 -77 vhcurveto
            -79 -54 rlineto
            return
          </CharString>
          <CharString index="247">
            7 0 53 -53 69 -69 82 354 227 -82 82 -82 87 hstemhm
            244 181 return
          </CharString>
          <CharString index="248">
            vvcurveto
            -141 177 -120 139 18 19 2 4 19 vhcurveto
            43 -196 153 62 -98 174 28 19 25 26 14 29 rlinecurve
            -110 140 rlineto
            return
          </CharString>
          <CharString index="249">
            118 -84 109 17 132 272 129 -3 -93 callsubr
            57 126 -104 134 92 127 -35 140 -73 115 -27 112 return
          </CharString>
          <CharString index="250">
            44 -66 hhcurveto
            -27 callsubr
            return
          </CharString>
          <CharString index="251">
            rmoveto
            -6 9 -6 13 -6 14 rrcurveto
            102 16 49 48 56 vvcurveto
            return
          </CharString>
          <CharString index="252">
            208 callgsubr
            hstemhm
            return
          </CharString>
          <CharString index="253">
            76 530 rmoveto
            -55 34 -60 57 -51 vhcurveto
            -153 -94 100 -114 185 120 2 1 31 -13 34 -12 35 -8 rlinecurve
            -202 -140 103 -104 return
          </CharString>
          <CharString index="254">
            19 vvcurveto
            42 35 41 90 vhcurveto
            179 hlineto
            21 42 -69 109 rlineto
            -179 hlineto
            return
          </CharString>
          <CharString index="255">
            -57 -28 rlineto
            1 hlineto
            -3 -58 rlineto
            -42 55 128 -26 56 hhcurveto
            37 47 -33 64 return
          </CharString>
          <CharString index="256">
            194 callgsubr
            167 return
          </CharString>
          <CharString index="257">
            11 175 150 175 return
          </CharString>
          <CharString index="258">
            198 161 callgsubr
            return
          </CharString>
          <CharString index="259">
            hlineto
            -91 callsubr
            return
          </CharString>
          <CharString index="260">
            rmoveto
            hintmask 10100000
            85 38 73 86 77 vvcurveto
            51 -31 46 -67 25 vhcurveto
            -44 -24 -35 -38 -9 -53 54 -46 rcurveline
            -2 -33 -27 -44 -40 -34 rrcurveto
            endchar
          </CharString>
          <CharString index="261">
            226 callgsubr
            vvcurveto
            -7 0 -7 1 -7 vhcurveto
            -53 -62 -103 -50 -65 15 -10 callgsubr
            return
          </CharString>
          <CharString index="262">
            28 callsubr
            -68 -57 return
          </CharString>
          <CharString index="263">
            22 -43 35 -28 48 -14 348 callsubr
            44 -40 37 -48 21 return
          </CharString>
          <CharString index="264">
            57 -75 rlineto
            46 -144 hlineto
            -63 42 -66 57 -50 vhcurveto
            return
          </CharString>
          <CharString index="265">
            285 119 callgsubr
            return
          </CharString>
          <CharString index="266">
            222 vlineto
            50 46 51 38 32 hhcurveto
            return
          </CharString>
          <CharString index="267">
            -93 callsubr
            18 return
          </CharString>
          <CharString index="268">
            9 -23 -36 5 -33 hhcurveto
            -52 hlineto
            -54 -27 32 74 -16 hvcurveto
            -88 -27 rlineto
            -129 7 100 -61 97 hhcurveto
            84 hlineto
            57 26 -2 -44 11 hvcurveto
            return
          </CharString>
          <CharString index="269">
            105 -92 98 -104 -89 -68 -72 -76 vhcurveto
            142 -51 rmoveto
            64 59 42 44 -38 vhcurveto
            11 -39 -30 -52 -60 -43 rrcurveto
            -15 19 -9 22 25 vvcurveto
            return
          </CharString>
          <CharString index="270">
            49 -314 rmoveto
            62 37 -66 -75 -60 -22 -62 -39 -34 hvcurveto
            -32 -5 -29 4 -26 8 rrcurveto
            278 vlineto
            8 17 16 4 16 hhcurveto
            endchar
          </CharString>
          <CharString index="271">
            -70 -2 -70 -13 -58 -22 5 -48 rcurveline
            75 -14 rlineto
            -454 vlineto
            -68 -38 -34 -60 -20 vhcurveto
            17 -42 rlineto
            189 17 65 91 66 vvcurveto
            return
          </CharString>
          <CharString index="272">
            1 317 -30 callsubr
            108 158 vlineto
            19 -48 41 -41 46 -28 rrcurveto
            -31 49 56 -17 50 hhcurveto
            return
          </CharString>
          <CharString index="273">
            47 -20 109 -109 114 177 33 135 243 -96 96 return
          </CharString>
          <CharString index="274">
            138 51 rlineto
            -54 5 -57 -57 -85 hhcurveto
            -78 -80 46 120 -79 hvcurveto
            return
          </CharString>
          <CharString index="275">
            266 callsubr
            -203 -163 hlineto
            endchar
          </CharString>
          <CharString index="276">
            vvcurveto
            -73 callsubr
            return
          </CharString>
          <CharString index="277">
            -134 -20 90 334 96 return
          </CharString>
          <CharString index="278">
            rcurveline
            8 -19 -22 4 -21 hhcurveto
            -83 -91 -58 -116 -8 0 -8 1 -8 hvcurveto
            hintmask 1010000111111110
            -15 -24 -27 -9 -26 hhcurveto
            hintmask 1000100111111110
            return
          </CharString>
          <CharString index="279">
            33 122 -47 144 58 118 -110 322 callsubr
            111 154 212 140 -39 147 return
          </CharString>
          <CharString index="280">
            -310 0 49 -49 69 -69 84 hstemhm
            86 173 return
          </CharString>
          <CharString index="281">
            rmoveto
            354 callgsubr
            -43 66 32 rcurveline
            111 return
          </CharString>
          <CharString index="282">
            553 -96 callgsubr
            return
          </CharString>
          <CharString index="283">
            77 -12 rlineto
            -518 vlineto
            return
          </CharString>
          <CharString index="284">
            -87 callgsubr
            203 146 -141 120 hstemhm
            -317 130 254 160 hintmask 11101010
            return
          </CharString>
          <CharString index="285">
            183 callsubr
            rlineto
            return
          </CharString>
          <CharString index="286">
            -96 callgsubr
            177 -95 callgsubr
            -701 95 callgsubr
            return
          </CharString>
          <CharString index="287">
            161 -109 120 109 263 callgsubr
            return
          </CharString>
          <CharString index="288">
            118 24 -93 callsubr
            111 154 217 160 return
          </CharString>
          <CharString index="289">
            0 -21 92 120 return
          </CharString>
          <CharString index="290">
            -11 callsubr
            32 41 -67 105 return
          </CharString>
          <CharString index="291">
            117 hstemhm
            46 165 -144 return
          </CharString>
          <CharString index="292">
            64 169 callsubr
            return
          </CharString>
          <CharString index="293">
            -3 -86 11 rlinecurve
            24 30 13 35 36 vvcurveto
            hintmask 0111010111100000
            216 callsubr
            -87 -73 -60 -90 vhcurveto
            hintmask 0111100111100000
            return
          </CharString>
          <CharString index="294">
            -37 -29 -19 -42 -41 vvcurveto
            -107 131 -80 106 24 22 4 8 20 vhcurveto
            -35 vlineto
            92 -47 35 17 rlineto
            347 vlineto
            return
          </CharString>
          <CharString index="295">
            336 callgsubr
            -43 callsubr
            return
          </CharString>
          <CharString index="296">
            259 callsubr
            -35 -6 -39 3 -43 118 -74 rcurveline
            return
          </CharString>
          <CharString index="297">
            -105 callsubr
            -653 -107 callgsubr
            346 return
          </CharString>
          <CharString index="298">
            rmoveto
            -148 32 -111 -95 -112 vvcurveto
            -141 174 -107 return
          </CharString>
          <CharString index="299">
            -20 105 141 -32 124 -36 162 hstemhm
            return
          </CharString>
          <CharString index="300">
            -1 -63 44 -47 254 callgsubr
            return
          </CharString>
          <CharString index="301">
            157 256 callgsubr
            return
          </CharString>
          <CharString index="302">
            hhcurveto
            22 24 -12 -25 26 hvcurveto
            return
          </CharString>
          <CharString index="303">
            -4 -7 19 hvcurveto
            -70 vlineto
            return
          </CharString>
          <CharString index="304">
            136 177 144 return
          </CharString>
          <CharString index="305">
            hlineto
            -21 -42 rlineto
            return
          </CharString>
          <CharString index="306">
            rmoveto
            -17 247 callgsubr
            29 37 12 30 rrcurveto
            return
          </CharString>
          <CharString index="307">
            rmoveto
            -28 40 -41 38 -44 24 -40 -30 -34 -42 -25 -48 30 -37 44 -34 45 -21 38 28 34 39 21 43 rrcurveto
            return
          </CharString>
          <CharString index="308">
            -75 callgsubr
            -33 -28 -21 -78 -15 vhcurveto
            48 -40 -48 20 -50 hhcurveto
            -57 -54 -27 -45 -39 hvcurveto
            return
          </CharString>
          <CharString index="309">
            -5 393 rmoveto
            25 callsubr
            47 hlineto
            return
          </CharString>
          <CharString index="310">
            1 callsubr
            17 14 -10 -10 8 hvcurveto
            return
          </CharString>
          <CharString index="311">
            297 hlineto
            25 -19 11 -21 -24 vvcurveto
            -26 -14 -22 -25 -17 vhcurveto
            -49 -2 -57 -22 -37 -33 94 -141 rcurveline
            return
          </CharString>
          <CharString index="312">
            149 -122 114 -175 -54 -47 -11 -19 -40 vhcurveto
            340 callsubr
            return
          </CharString>
          <CharString index="313">
            -145 30 -103 -91 -109 vvcurveto
            -82 59 -66 64 -38 vhcurveto
            return
          </CharString>
          <CharString index="314">
            553 18 callgsubr
            return
          </CharString>
          <CharString index="315">
            405.5 -382.5 140 173.5 54.5 hintmask 11101100
            return
          </CharString>
          <CharString index="316" raw="1">
            f7ee1d92 87918792 88fb1538 18f70735
            0b   
          </CharString>
          <CharString index="317">
            53 -128 -89 104 -101 119 -91 41 -141 -98 rlinecurve
            75 -134 93 57 61 15 73 -73 rlinecurve
            return
          </CharString>
          <CharString index="318">
            92 vhcurveto
            120 callgsubr
            return
          </CharString>
          <CharString index="319">
            334 -59 callsubr
            return
          </CharString>
          <CharString index="320">
            82 53 43 62 31 32 -11 -21 29 vhcurveto
            return
          </CharString>
          <CharString index="321">
            hhcurveto
            -38 -33 -14 -23 -30 hvcurveto
            endchar
          </CharString>
          <CharString index="322">
            -63 48 26 82 61 -10 return
          </CharString>
          <CharString index="323">
            86 -77 139 -131 return
          </CharString>
          <CharString index="324">
            rlinecurve
            -6 32 rlineto
            return
          </CharString>
          <CharString index="325">
            116 86 148 -84 121 -110 128 46 117 hstemhm
            19 -6 callgsubr
            return
          </CharString>
          <CharString index="326">
            260 callsubr
            -178 -60 -106 -91 return
          </CharString>
          <CharString index="327">
            vlineto
            -124 -57 -63 -67 -88 99 -90 146 -46 hvcurveto
            return
          </CharString>
          <CharString index="328">
            -42 -28 -28 -42 -51 vvcurveto
            -103 119 -84 114 vhcurveto
            return
          </CharString>
          <CharString index="329">
            128 3 -93 callsubr
            return
          </CharString>
          <CharString index="330">
            122 217 callgsubr
            return
          </CharString>
          <CharString index="331">
            169 187 152 callsubr
            return
          </CharString>
          <CharString index="332">
            356 490 312 callsubr
            return
          </CharString>
          <CharString index="333">
            -116 99 -53 89 -41 vhcurveto
            return
          </CharString>
          <CharString index="334">
            140 282 132 7 -93 callsubr
            67 137 166 144 -64 120 return
          </CharString>
          <CharString index="335" raw="1">
            f0421d83 0a0b  
          </CharString>
          <CharString index="336">
            19 rmoveto
            138 callgsubr
            return
          </CharString>
          <CharString index="337">
            12 0 -21 511 302 callgsubr
            46 160 return
          </CharString>
          <CharString index="338">
            -36 -36 -20 -47 -55 vvcurveto
            -168 191 -150 229 -27 vhcurveto
            31 98 rlineto
            -185 return
          </CharString>
          <CharString index="339">
            182 callsubr
            299 302 callgsubr
            return
          </CharString>
          <CharString index="340">
            vvcurveto
            -95 64 -84 119 -107 vhcurveto
            82 72 rlineto
            -76 70 -35 46 49 vvcurveto
            56 45 35 60 return
          </CharString>
          <CharString index="341">
            rmoveto
            66 84 41 137 -6 48 -111 22 rcurveline
            -47 -47 4 -41 -14 -89 -31 -79 rlinecurve
            return
          </CharString>
          <CharString index="342">
            -1 -64 44 -46 87 -35 274 callsubr
            -39 return
          </CharString>
          <CharString index="343">
            39 -39 294 callgsubr
            return
          </CharString>
          <CharString index="344">
            -2 -23 3 -48 6 -24 rrcurveto
            50 hlineto
            return
          </CharString>
          <CharString index="345">
            140 -96 callgsubr
            return
          </CharString>
          <CharString index="346">
            rmoveto
            -165 183 -83 -56 88 -167 -95 -158 88 -62 167 181 rlineto
            return
          </CharString>
          <CharString index="347">
            vstem
            94 callgsubr
            return
          </CharString>
          <CharString index="348">
            -76 callsubr
            -66 -63 return
          </CharString>
          <CharString index="349">
            -38 -31 -5 -9 -27 hvcurveto
            -16 16 -8 15 14 vvcurveto
            24 21 24 47 vhcurveto
            274 hlineto
            return
          </CharString>
          <CharString index="350">
            rmoveto
            167 -181 88 62 -94 158 88 167 -83 56 -166 -183 rlineto
            return
          </CharString>
          <CharString index="351">
            -41 54 rlineto
            -370 -107 callgsubr
            120 hlineto
            9 -200 rlineto
            -80 hlineto
            return
          </CharString>
          <CharString index="352">
            rmoveto
            -69 48 rlineto
            return
          </CharString>
          <CharString index="353">
            83 -106 123 -136 vhcurveto
            -219 4 hlineto
            -68 48 rlineto
            587 -303 hlineto
            return
          </CharString>
          <CharString index="354">
            119 callsubr
            173 186 hlineto
            -67 48 rlineto
            return
          </CharString>
          <CharString index="355">
            -144 -64 -78 -82 -120 133 -114 157 127 68 75 87 hvcurveto
            return
          </CharString>
          <CharString index="356">
            279 478 191 callsubr
            return
          </CharString>
          <CharString index="357">
            hstemhm
            49 162 173 160 -79 164 return
          </CharString>
          <CharString index="358">
            -73 callsubr
            -33 callsubr
            return
          </CharString>
          <CharString index="359">
            vlineto
            45 -55 64 -50 51 -17 60 33 rcurveline
            89 return
          </CharString>
          <CharString index="360">
            -71 -47 -56 hhcurveto
            -35 31 38 51 75 12 rrcurveto
            return
          </CharString>
          <CharString index="361">
            hlineto
            -31 -43 -5 -20 -39 hvcurveto
            return
          </CharString>
          <CharString index="362">
            148 38 -101 callgsubr
            return
          </CharString>
          <CharString index="363">
            135 77 154 return
          </CharString>
          <CharString index="364">
            402.5 -389.5 128 233 123 hintmask 01101011
            return
          </CharString>
          <CharString index="365">
            346 -57 -130 hlineto
            73 callgsubr
            return
          </CharString>
          <CharString index="366">
            328 callgsubr
            10 -1 -3 10 vhcurveto
            -13 return
          </CharString>
          <CharString index="367">
            190 callsubr
            -86 -71 hlineto
            return
          </CharString>
          <CharString index="368">
            298 callgsubr
            169 return
          </CharString>
          <CharString index="369">
            -32 -8 -38 -44 vvcurveto
            118 -74 return
          </CharString>
          <CharString index="370">
            hhcurveto
            -205 239 callgsubr
            return
          </CharString>
          <CharString index="371">
            hstemhm
            170 callgsubr
            return
          </CharString>
          <CharString index="372">
            hvcurveto
            44 -60 71 -58 56 -19 rrcurveto
            return
          </CharString>
          <CharString index="373">
            rmoveto
            -91 callsubr
            231 return
          </CharString>
          <CharString index="374">
            0 -21 150 134 return
          </CharString>
          <CharString index="375">
            -105 callsubr
            -291 -83 callgsubr
            21 -187 hlineto
            return
          </CharString>
          <CharString index="376">
            -1 180 -159 -21 269 138 -56 42 140 146 hstemhm
            return
          </CharString>
          <CharString index="377">
            105 306 callsubr
            145 return
          </CharString>
          <CharString index="378">
            315 -79 -38 hlineto
            -168 -73 -92 -91 return
          </CharString>
          <CharString index="379">
            296 callsubr
            -163 191 return
          </CharString>
          <CharString index="380">
            0 29 -29 37 34 55.5 return
          </CharString>
          <CharString index="381">
            66 358 callgsubr
            return
          </CharString>
          <CharString index="382">
            32 7 14 29 hvcurveto
            return
          </CharString>
          <CharString index="383">
            13 -53 -8 -42 -19 return
          </CharString>
          <CharString index="384">
            -7 -51 21 -39 return
          </CharString>
          <CharString index="385">
            -196 rmoveto
            -12 18 -10 20 -7 22 rrcurveto
            -57 callsubr
            return
          </CharString>
          <CharString index="386">
            -31 -2 rrcurveto
            39 215 rmoveto
            -96 23 -78 -73 -86 vvcurveto
            -105 115 return
          </CharString>
          <CharString index="387">
            -148 31 -111 -94 -113 vvcurveto
            -141 172 -106 144 return
          </CharString>
          <CharString index="388">
            319 callsubr
            36 195 callsubr
            return
          </CharString>
          <CharString index="389">
            173 181 hlineto
            -72 51 rlineto
            endchar
          </CharString>
          <CharString index="390">
            vvcurveto
            hintmask 1111101100000000
            80 -50 75 -76 53 vhcurveto
            93 -96 callgsubr
            return
          </CharString>
          <CharString index="391">
            99 hstem
            54 488 vstem
            54 306 rmoveto
            -99 488 99 vlineto
            return
          </CharString>
          <CharString index="392">
            344 callgsubr
            12 12 -2 -5 return
          </CharString>
          <CharString index="393">
            -94 callgsubr
            endchar
          </CharString>
          <CharString index="394">
            145 callgsubr
            287 hlineto
            return
          </CharString>
          <CharString index="395">
            -314 353 callgsubr
            return
          </CharString>
          <CharString index="396">
            -1 -63 44 -46 87 -35 66 -3 rlinecurve
            return
          </CharString>
          <CharString index="397">
            -1 -64 44 -46 87 -34 66 -3 rlinecurve
            return
          </CharString>
          <CharString index="398">
            323 callsubr
            144 111 return
          </CharString>
          <CharString index="399">
            117 hstem
            325 callsubr
            return
          </CharString>
          <CharString index="400">
            12 -28 -15 -26 -36 -16 -33 return
          </CharString>
          <CharString index="401">
            hhcurveto
            -42 -56 -13 -44 -43 hvcurveto
            return
          </CharString>
          <CharString index="402">
            -93 callsubr
            26 return
          </CharString>
          <CharString index="403">
            hlineto
            112 callsubr
            return
          </CharString>
          <CharString index="404">
            -30 49 55 -18 56 hhcurveto
            return
          </CharString>
          <CharString index="405">
            134 90 135 return
          </CharString>
          <CharString index="406">
            rlineto
            55 77 42 29 return
          </CharString>
          <CharString index="407">
            hstemhm
            40 412 -344 125 94 125 hintmask 11000000
            78 return
          </CharString>
          <CharString index="408">
            -55 callgsubr
            -62 13 return
          </CharString>
          <CharString index="409">
            415 167 rmoveto
            38 25 18 21 16 16 -12 -25 -31 return
          </CharString>
          <CharString index="410">
            -62 -3 -72 -42 -70 hhcurveto
            -85 -119 56 157 -81 hvcurveto
            return
          </CharString>
          <CharString index="411">
            42 callgsubr
            324 callsubr
            return
          </CharString>
          <CharString index="412">
            66 56 32 39 37 vhcurveto
            -73 115 rlineto
            -37 -31 -72 -37 return
          </CharString>
          <CharString index="413">
            38 136 -13 callsubr
            47 133 -113 return
          </CharString>
          <CharString index="414">
            55 115 187 127 54 117 hstem
            20 160 return
          </CharString>
          <CharString index="415">
            -95 callgsubr
            -780 -107 callgsubr
            return
          </CharString>
          <CharString index="416">
            hlineto
            74 56 1 -26 -26 -58 -11 -90 -5 hvcurveto
            -19 -48 rlineto
            return
          </CharString>
          <CharString index="417">
            -46 callsubr
            endchar
          </CharString>
          <CharString index="418">
            hlineto
            1 53 rlineto
            return
          </CharString>
          <CharString index="419">
            rmoveto
            -68 48 rlineto
            return
          </CharString>
          <CharString index="420">
            vlineto
            -50 50 rlineto
            hintmask 1001010101000000
            -19 44 44 -8 39 hhcurveto
            return
          </CharString>
          <CharString index="421">
            vlineto
            114 177 callgsubr
            175 callsubr
            return
          </CharString>
          <CharString index="422">
            -45 -27 -32 -42 -53 vvcurveto
            -104 122 -83 117 vhcurveto
            return
          </CharString>
          <CharString index="423">
            -144 162 -118 153 -7 vhcurveto
            -52 -47 vlineto
            return
          </CharString>
          <CharString index="424">
            -25 7 -24 14 -22 vhcurveto
            -54 -66 -98 -51 -75 18 rrcurveto
            return
          </CharString>
          <CharString index="425">
            vlineto
            -63 48 rlineto
            155 -239 hlineto
            -67 -67 -4 -25 return
          </CharString>
          <CharString index="426">
            99 -147 299 callsubr
            return
          </CharString>
          <CharString index="427">
            111 -82 160 117 rlineto
            return
          </CharString>
          <CharString index="428">
            -34 50 55 72 119 -16 rrcurveto
            return
          </CharString>
          <CharString index="429">
            138 333 callgsubr
            return
          </CharString>
          <CharString index="430">
            -51 127 -76 -21 return
          </CharString>
          <CharString index="431">
            146 160 return
          </CharString>
          <CharString index="432">
            318 136 return
          </CharString>
          <CharString index="433">
            57 -43 -53 26 -58 hhcurveto
            -51 -49 -15 -31 -37 hvcurveto
            return
          </CharString>
          <CharString index="434">
            -30 callsubr
            111 return
          </CharString>
          <CharString index="435">
            0 -21 322 144 45 -26 callgsubr
            return
          </CharString>
          <CharString index="436">
            -35 -30 -15 -36 -35 vvcurveto
            -52 34 -49 59 -28 vhcurveto
            return
          </CharString>
          <CharString index="437">
            -9 16 -4 14 13 vvcurveto
            endchar
          </CharString>
          <CharString index="438">
            156 153 151 return
          </CharString>
          <CharString index="439">
            153 155 151 return
          </CharString>
          <CharString index="440">
            137 -96 callgsubr
            return
          </CharString>
          <CharString index="441">
            144 -133 122 return
          </CharString>
          <CharString index="442">
            -6 44 rlineto
            -1 return
          </CharString>
          <CharString index="443">
            rlineto
            220 hlineto
            return
          </CharString>
          <CharString index="444">
            145 90 165 -151 138 hintmask 11101000
            return
          </CharString>
          <CharString index="445">
            rmoveto
            21 -72 86 -102 57 -34 66 31 rcurveline
            99 return
          </CharString>
          <CharString index="446">
            -52 -29 -27 -51 -49 vvcurveto
            -106 131 -80 106 return
          </CharString>
          <CharString index="447">
            -4 8 -2 7 8 145 callgsubr
            return
          </CharString>
          <CharString index="448">
            9 9 21 43 25 89 18 hvcurveto
            22 44 rlineto
            return
          </CharString>
          <CharString index="449">
            -1 -22 -14 -2 -15 hhcurveto
            -15 -10 10 14 hvcurveto
            return
          </CharString>
          <CharString index="450">
            361 callsubr
            rrcurveto
            return
          </CharString>
          <CharString index="451">
            23 27 16 31 32 vvcurveto
            52 -43 55 -65 -36 return
          </CharString>
          <CharString index="452">
            -202 -21 212 137 552 -20 hstemhm
            return
          </CharString>
          <CharString index="453">
            171 callgsubr
            15 129 -65 148 return
          </CharString>
          <CharString index="454">
            85 -61 86 -80 45 vhcurveto
            60 return
          </CharString>
          <CharString index="455">
            43 22 29 34 13 45 -12 return
          </CharString>
          <CharString index="456" raw="1">
            f7bc0a2c 0b  
          </CharString>
          <CharString index="457">
            vvcurveto
            -67 48 -61 62 -38 vhcurveto
            return
          </CharString>
          <CharString index="458">
            hhcurveto
            -62 -58 -29 -47 -39 hvcurveto
            return
          </CharString>
          <CharString index="459">
            490 -26 callgsubr
            return
          </CharString>
          <CharString index="460">
            -31 49 62 -21 62 hhcurveto
            32 return
          </CharString>
          <CharString index="461">
            490 235 rmoveto
            return
          </CharString>
          <CharString index="462">
            rmoveto
            -17 22 -36 32 return
          </CharString>
          <CharString index="463">
            -128 -57 -58 -71 return
          </CharString>
          <CharString index="464">
            438 152 rmoveto
            return
          </CharString>
          <CharString index="465">
            60 33 rlineto
            89 return
          </CharString>
          <CharString index="466">
            hstemhm
            82 174 return
          </CharString>
          <CharString index="467">
            vlineto
            -23 -9 -23 -9 -20 -8 2 -35 rcurveline
            return
          </CharString>
          <CharString index="468">
            15 285 rmoveto
            25 -79 106 -100 77 -26 return
          </CharString>
          <CharString index="469">
            67 217 49 hstem
            181 104 vstem
            102 return
          </CharString>
          <CharString index="470">
            357 callgsubr
            237 182 rlineto
            return
          </CharString>
          <CharString index="471">
            -35 -36 -20 -47 -54 vvcurveto
            -172 201 return
          </CharString>
          <CharString index="472">
            vvcurveto
            82 -73 95 -112 -88 -51 -58 -59 return
          </CharString>
          <CharString index="473">
            329 -59 callsubr
            return
          </CharString>
          <CharString index="474">
            hintmask 10011000
            2 49 return
          </CharString>
          <CharString index="475">
            rcurveline
            1 7 7 return
          </CharString>
          <CharString index="476">
            rlineto
            196 vlineto
            return
          </CharString>
        <CharString name=".notdef">
          -149 23 115 206 114 hstem
          47 107 207 104 vstem
          47 23 rmoveto
          418 435 -418 hlineto
          107 -114 rmoveto
          207 -206 -207 hlineto
          endchar
        </CharString>
        <CharString name="A">
          -84 callsubr
          -10 -430 71 callsubr
        </CharString>
        <CharString name="AE">
          303 0 103 -103 212 -40 84 28.5 94.5 81 202 -96 96 -64 64 -53 53 hstemhm
          439 175 hintmask 1010010010000000
          290 662 rmoveto
          hintmask 1010000110000000
          -1 -53 rlineto
          hintmask 1010001010000000
          73 -11 -267 -512 -21 -11 -49 -21 -27 -20 rlinecurve
          6 -34 rlineto
          280 hlineto
          1 53 -84 13 54 106 rlineto
          184 -92 hlineto
          -25 -12 -38 -17 -22 -17 6 -34 rcurveline
          540 1 hlineto
          12 -1 rlineto
          hintmask 0100010010000000
          8 59 6 92 -2 57 -99 8 rcurveline
          hintmask 1011010010000000
          -36 -108 -175 -10 rlineto
          191 vlineto
          215 -9 rlineto
          108 vlineto
          -215 -18 rlineto
          201 vlineto
          168 -10 rlineto
          hintmask 1010100010000000
          18 -101 rlineto
          100 hlineto
          hintmask 1010010010000000
          14 67 7 92 -3 43 rrcurveto
          -479 -406 rmoveto
          -142 hlineto
          142 281 rlineto
          endchar
        </CharString>
        <CharString name="Aacute">
          -84 callsubr
          -159 hmoveto
          83 35 92 33 84 32 -62 124 rcurveline
          -244 -143 rlineto
          196 -511 71 callsubr
        </CharString>
        <CharString name="Abreve">
          69 0 256 -84 84 466 91 hstemhm
          -20 762 -556 99 hintmask 10110000
          -77 callsubr
          hintmask 01110000
          63 callgsubr
          -5 197 rmoveto
          hintmask 10101000
          85 callgsubr
          -116 -625 71 callsubr
        </CharString>
        <CharString name="Acircumflex">
          -84 callsubr
          -216 18 20 callgsubr
          268 -505 71 callsubr
        </CharString>
        <CharString name="Adieresis">
          -84 callsubr
          -193 230 -100 callgsubr
          -61 -660 71 callsubr
        </CharString>
        <CharString name="Agrave">
          -84 callsubr
          -158 224 70 callgsubr
          -96 -511 71 callsubr
        </CharString>
        <CharString name="Amacron">
          69 0 256 -84 84 486 99 hstemhm
          -20 762 hintmask 10110000
          -77 callsubr
          hintmask 01110000
          63 callgsubr
          -264 130 38 callsubr
          254 -560 71 callsubr
        </CharString>
        <CharString name="Aogonek">
          69 -284 91 -3 -21 217 256 -84 84 hstemhm
          422 119 hintmask 01101000
          -77 callsubr
          hintmask 01011000
          40 105 336 callsubr
          hintmask 10101000
          35 -95 -29 -14 -27 -14 -24 -17 rlinecurve
          6 -32 rlineto
          185 hlineto
          -109 -46 -56 -65 -61 vvcurveto
          297 callgsubr
          hintmask 01101000
          126 67 rlineto
          hintmask 10101000
          195 callgsubr
          51 53 43 76 46 vhcurveto
          71 hlineto
          1 53 -72 11 -251 622 rlineto
          -10 -430 71 callsubr
        </CharString>
        <CharString name="Aring">
          69 0 256 -84 84 454 48 116 82 hstemhm
          231 65 117 64 hintmask 10111100
          -77 callsubr
          hintmask 01111100
          40 105 336 callsubr
          hintmask 10111100
          35 -95 -29 -14 -27 -14 -24 -17 rlinecurve
          6 -32 rlineto
          339 hlineto
          1 53 -72 11 -251 622 rlineto
          -61 24 -72 callgsubr
          54 -618 71 callsubr
        </CharString>
        <CharString name="Atilde">
          69 0 256 -84 84 527 119 hstemhm
          -20 762 hintmask 10010000
          -77 callsubr
          hintmask 01010000
          63 callgsubr
          -237 37 -66 callsubr
          281 -507 71 callsubr
        </CharString>
        <CharString name="B">
          32 0 89 219 72 -72 362 -102 102 -87 87 77 callsubr
          163 180 -157 186 hintmask 10100101
          39 662 rmoveto
          -1 -53 71 -10 rlineto
          -520 90 callgsubr
          352 hlineto
          206 74 92 92 77 -52 69 -101 20 hvcurveto
          hintmask 10100110
          85 19 39 71 59 vvcurveto
          84 -82 87 -174 vhcurveto
          hintmask 10100101
          -88 -155 -3 -5 -95 hvcurveto
          hintmask 11001110
          347 -79 rmoveto
          41 -12 26 -49 -44 vvcurveto
          -49 -34 -49 -84 vhcurveto
          -45 hlineto
          hintmask 10010101
          188 vlineto
          70 -483 rmoveto
          -70 8 rlineto
          hintmask 10100101
          215 74 vlineto
          69 43 -63 -57 hvcurveto
          hintmask 10010101
          -55 -37 -56 -79 8 vhcurveto
          endchar
        </CharString>
        <CharString name="C">
          -60 callgsubr
          endchar
        </CharString>
        <CharString name="Cacute">
          -60 callgsubr
          -349 614 -61 callsubr
        </CharString>
        <CharString name="Ccaron">
          -60 callgsubr
          -467 776 -58 callgsubr
        </CharString>
        <CharString name="Ccedilla">
          -64 359 callgsubr
          40 117 -91 -21 437 257 -96 96 hstemhm
          9 182 143 125 hintmask 11001110
          561 154 rmoveto
          -170 -54 rlineto
          -134 -3 -66 111 140 vvcurveto
          88 26 95 61 55 vhcurveto
          49 -2 42 -10 39 -15 rrcurveto
          hintmask 10110110
          30 -134 rlineto
          108 hlineto
          hintmask 10101110
          16 56 12 94 -4 42 rrcurveto
          31 -43 -65 34 -103 hhcurveto
          -237 -113 -180 -180 -140 69 -163 205 -31 hvcurveto
          -48 -58 -23 callsubr
          hintmask 11001110
          23 40 rlineto
          -1 9 9 1 9 hhcurveto
          210 89 rlineto
          endchar
        </CharString>
        <CharString name="D">
          -13 callgsubr
          endchar
        </CharString>
        <CharString name="Dcaron">
          -13 callgsubr
          -208 756 -58 callgsubr
        </CharString>
        <CharString name="Dcroat">
          -34 callsubr
        </CharString>
        <CharString name="E">
          -103 callgsubr
          endchar
        </CharString>
        <CharString name="Eacute">
          -103 callgsubr
          204 654 -61 callsubr
        </CharString>
        <CharString name="Ecaron">
          -103 callgsubr
          86 816 -58 callgsubr
        </CharString>
        <CharString name="Ecircumflex">
          -103 callgsubr
          147 672 20 callgsubr
          endchar
        </CharString>
        <CharString name="Edieresis">
          -103 callgsubr
          170 884 -100 callgsubr
          endchar
        </CharString>
        <CharString name="Edotaccent">
          -103 callgsubr
          295 884 -57 callgsubr
        </CharString>
        <CharString name="Egrave">
          -103 callgsubr
          205 878 70 callgsubr
          endchar
        </CharString>
        <CharString name="Emacron">
          -18 0 99.5 -99.5 212 72.5 95 80.5 202 -94.5 94.5 -64 64 -53 53 80 99 77 callsubr
          hintmask 1010100110000000
          24 32 rmoveto
          6 -32 rlineto
          550 hlineto
          1 hlineto
          hintmask 0110100110000000
          8 59 6 92 -2 57 -99 8 rcurveline
          hintmask 1010100110000000
          -36 -110 -168 -13 369 callsubr
          209 -9 rlineto
          108 vlineto
          -209 -17 311 callgsubr
          162 -11 rlineto
          hintmask 1011000110000000
          18 -102 rlineto
          100 hlineto
          hintmask 1010100110000000
          14 67 7 92 -3 43 rrcurveto
          -553 hlineto
          hintmask 1010001110000000
          -1 -53 rlineto
          hintmask 1010010110000000
          197 callgsubr
          hintmask 1010100110000000
          -31 -14 -29 -16 -25 -17 rrcurveto
          99 784 38 callsubr
          endchar
        </CharString>
        <CharString name="Eogonek">
          -18 -286 91 -3 -21 219 99.5 185 95 80.5 202 -94.5 94.5 -64 64 -53 53 77 callsubr
          43 119 hintmask 0111010011000000
          24 32 rmoveto
          6 -32 rlineto
          473 hlineto
          -112 -46 -58 -66 -62 vvcurveto
          hintmask 1011010011000000
          297 callgsubr
          hintmask 0111010011000000
          126 67 rlineto
          hintmask 1011010011000000
          195 callgsubr
          52 55 43 77 47 vhcurveto
          -3 2 8 57 6 92 -2 57 rlinecurve
          -99 8 -36 -110 -168 -13 369 callsubr
          209 -9 rlineto
          108 vlineto
          -209 -17 311 callgsubr
          162 -11 rlineto
          hintmask 0111100011000000
          18 -102 rlineto
          100 hlineto
          hintmask 0111010011000000
          14 67 7 92 -3 43 rrcurveto
          -553 hlineto
          hintmask 0111000111000000
          -1 -53 rlineto
          hintmask 0111001011000000
          197 callgsubr
          hintmask 0111010011000000
          -31 -14 -29 -16 -25 -17 rrcurveto
          endchar
        </CharString>
        <CharString name="Eth">
          -34 callsubr
        </CharString>
        <CharString name="Euro">
          -11 -22 115 108 71 64 71 42 221 -102 102 hstemhm
          85 175 hintmask 11101100
          605 132 rmoveto
          -146 -39 -92 6 -56 40 -28 62 rlinecurve
          211 hlineto
          39 46 -6 25 rlineto
          -264 hlineto
          -2 16 -1 17 18 4 0 5 4 vvcurveto
          274 hlineto
          39 46 -6 25 rlineto
          -298 hlineto
          14 68 32 56 46 37 48 4 48 -10 47 -23 rrcurveto
          hintmask 11110100
          15 -90 rlineto
          81 hlineto
          hintmask 11101100
          15 41 12 55 8 63 rrcurveto
          -1 hlineto
          39 -51 -73 23 -81 hhcurveto
          -190 -109 -123 -140 -34 hvcurveto
          -59 hlineto
          -39 -46 6 -25 rlineto
          82 hlineto
          -1 -8 0 -9 -8 vvcurveto
          -13 1 -13 1 -13 vhcurveto
          -73 hlineto
          -40 -46 6 -25 rlineto
          121 hlineto
          35 -120 101 -107 210 4 185 75 rcurveline
          endchar
        </CharString>
        <CharString name="F">
          -38 0 53 -53 72 187 100.5 94.5 208 -93.5 93.5 -64 64 -53 53 hstemhm
          104 181 hintmask 10101001
          25 32 rmoveto
          6 -32 rlineto
          375 311 callsubr
          hintmask 01101001
          -122 19 rlineto
          192 vlineto
          222 -10 rlineto
          114 vlineto
          -222 -17 rlineto
          223 vlineto
          161 -11 rlineto
          hintmask 10110001
          19 -109 rlineto
          100 hlineto
          hintmask 10101001
          14 66 7 95 -3 44 1 3 rcurveline
          -553 hlineto
          hintmask 10100011
          -1 -53 rlineto
          hintmask 01100101
          74 -11 rlineto
          -522 vlineto
          hintmask 10101001
          -29 -13 -26 -15 -24 -16 rrcurveto
          endchar
        </CharString>
        <CharString name="G">
          166 callsubr
          hstemhm
          9 181 261 163 hintmask 10101110
          45 callsubr
          hintmask 01101110
          -127 vlineto
          hintmask 10101110
          76 callsubr
          hintmask 10110110
          31 -121 rlineto
          107 hlineto
          hintmask 10101110
          123 callgsubr
          endchar
        </CharString>
        <CharString name="Gbreve">
          166 callsubr
          40 91 hstemhm
          9 181 -5 99 167 163 hintmask 1010111010000000
          45 callsubr
          hintmask 0110111010000000
          -127 vlineto
          hintmask 1010111010000000
          76 callsubr
          hintmask 1011011010000000
          31 -121 rlineto
          107 hlineto
          hintmask 1010111010000000
          123 callgsubr
          404 564 rmoveto
          hintmask 1010110110000000
          85 callgsubr
          endchar
        </CharString>
        <CharString name="Gcommaaccent">
          166 callsubr
          hstemhm
          9 181 124 124 13 163 hintmask 10101101
          45 callsubr
          hintmask 01101101
          -127 vlineto
          hintmask 10101101
          76 callsubr
          hintmask 10110101
          31 -121 rlineto
          107 hlineto
          hintmask 10101101
          123 callgsubr
          hintmask 10101111
          279 -467 -87 callsubr
        </CharString>
        <CharString name="H">
          168 0 377 -94 94 220 42 callsubr
          243 181 hintmask 10001110
          457 662 rmoveto
          hintmask 10010110
          -1 -53 rlineto
          hintmask 10100110
          77 -12 rlineto
          -220 -243 vlineto
          hintmask 10001110
          206 -81 callgsubr
          -336 hlineto
          hintmask 10010110
          -1 -53 rlineto
          hintmask 10100110
          77 -12 rlineto
          -518 90 callgsubr
          350 hlineto
          1 53 -91 15 rlineto
          hintmask 01001110
          215 243 vlineto
          hintmask 10001110
          -204 90 callgsubr
          350 hlineto
          1 53 -91 15 rlineto
          515 -81 callgsubr
          endchar
        </CharString>
        <CharString name="I">
          -82 callgsubr
          endchar
        </CharString>
        <CharString name="Iacute">
          -82 callgsubr
          76 686 -61 callsubr
        </CharString>
        <CharString name="Icircumflex">
          -256 275 callgsubr
          79 -79 926 -329 42 callsubr
          hintmask 10000011
          380 hmoveto
          1 53 rlineto
          hintmask 01000011
          -91 15 rlineto
          515 -81 callgsubr
          -336 hlineto
          hintmask 10000101
          -1 -53 rlineto
          hintmask 00101001
          176 callsubr
          hintmask 10000011
          -52 callgsubr
          19 704 rmoveto
          151 114 157 -114 59 57 rlineto
          hintmask 00010001
          -155 165 rlineto
          -120 hlineto
          -154 -165 rlineto
          endchar
        </CharString>
        <CharString name="Idieresis">
          -82 callgsubr
          42 916 -100 callgsubr
          endchar
        </CharString>
        <CharString name="Idotaccent">
          -82 callgsubr
          167 916 -57 callgsubr
        </CharString>
        <CharString name="Igrave">
          -82 callgsubr
          77 910 70 callgsubr
          endchar
        </CharString>
        <CharString name="Imacron">
          -240 275 callgsubr
          79 518 65 -53 53 -32 32 70 99 hstemhm
          115 181 hintmask 10000111
          33 806 rmoveto
          6 -74 rlineto
          308 hlineto
          47 46 -5 53 rlineto
          -243 254 callsubr
          353 -806 rmoveto
          1 53 rlineto
          hintmask 01000111
          -91 15 rlineto
          515 -81 callgsubr
          -336 hlineto
          hintmask 10001011
          -1 -53 rlineto
          hintmask 00110011
          176 callsubr
          hintmask 10000111
          -52 callgsubr
          endchar
        </CharString>
        <CharString name="Iogonek">
          -256 -284 91 -3 -21 217 53 -53 79 518 65 -53 53 -32 32 hstemhm
          47 119 -57 181 hintmask 0101001010000000
          380 hmoveto
          hintmask 0110001010000000
          1 53 -91 15 rlineto
          515 -81 callgsubr
          -336 hlineto
          hintmask 0101010010000000
          -1 -53 rlineto
          hintmask 0101100010000000
          77 -12 rlineto
          -518 90 callgsubr
          182 hlineto
          hintmask 1001001100000000
          -109 -46 -56 -65 -61 vvcurveto
          297 callgsubr
          hintmask 0101001010000000
          126 67 rlineto
          hintmask 1001001100000000
          195 callgsubr
          51 53 43 76 46 vhcurveto
          endchar
        </CharString>
        <CharString name="J">
          -255 595 67 -53 53 -32 32 hstemhm
          119 180 hintmask 00110000
          35 662 rmoveto
          hintmask 01010000
          -1 -53 rlineto
          hintmask 10010000
          85 -14 rlineto
          -449 vlineto
          -162 -59 -62 -85 -53 vhcurveto
          35 -57 rlineto
          170 58 119 83 200 vvcurveto
          hintmask 00110000
          430 -81 callgsubr
          endchar
        </CharString>
        <CharString name="K">
          92 0 53 556 53 -32 32 77 callsubr
          hintmask 10110000
          88 callsubr
          hintmask 11010000
          -1 -53 65 -10 -209 -225 rlineto
          hintmask 10110000
          209 -81 callgsubr
          -336 hlineto
          hintmask 11010000
          -1 -53 176 callsubr
          hintmask 10110000
          -31 -14 -29 -16 -25 -17 rrcurveto
          endchar
        </CharString>
        <CharString name="Kcommaaccent">
          92 0 53 556 53 -32 32 77 callsubr
          68 124 hintmask 10111000
          88 callsubr
          hintmask 11011000
          -1 -53 65 -10 -209 -225 rlineto
          hintmask 10111000
          209 -81 callgsubr
          -336 hlineto
          hintmask 11011000
          -1 -53 176 callsubr
          hintmask 10111000
          -31 -14 -29 -16 -25 -17 rrcurveto
          308 -180 -87 callsubr
        </CharString>
        <CharString name="L">
          -42 224 callgsubr
          346.5 42 callsubr
          -25 callsubr
          endchar
        </CharString>
        <CharString name="Lacute">
          -42 224 callgsubr
          346.5 42 callsubr
          -25 callsubr
          -250 24 -61 callsubr
        </CharString>
        <CharString name="Lcaron">
          -42 224 callgsubr
          233.5 -20 133 42 callsubr
          196 129 hintmask 01100111
          33 662 rmoveto
          hintmask 01101011
          -1 -53 rlineto
          hintmask 10110011
          176 callsubr
          hintmask 01100111
          -52 callgsubr
          571 hlineto
          1 hlineto
          12 67 4 109 -2 70 -103 9 rcurveline
          -45 -145 -178 -17 rlineto
          490 -81 callgsubr
          85 -9 rmoveto
          31 callgsubr
        </CharString>
        <CharString name="Lcommaaccent">
          -42 224 callgsubr
          346.5 42 callsubr
          -12 124 -25 callsubr
          hintmask 01001010
          -117 -810 -87 callsubr
        </CharString>
        <CharString name="Lslash">
          -26 224 callgsubr
          346.5 65 -53 53 -32 32 hstemhm
          127 181 hintmask 01001100
          27 277 rmoveto
          29 -61 71 33 rlineto
          hintmask 10001100
          -170 vlineto
          hintmask 01001100
          -52 callgsubr
          571 hlineto
          1 hlineto
          12 67 4 109 -2 70 -103 9 rcurveline
          -45 -145 -178 -17 rlineto
          240 vlineto
          113 53 15 52 -16 24 -112 -53 rlineto
          174 -81 callgsubr
          -336 hlineto
          hintmask 01010100
          -1 -53 rlineto
          hintmask 01100100
          77 -12 rlineto
          -273 vlineto
          endchar
        </CharString>
        <CharString name="M">
          320 0 47 -47 650 -636 -21 610 47 -32 32 hstemhm
          117 121.5 452 169.5 hintmask 01000110
          40 650 rmoveto
          hintmask 00010110
          -1 -47 84 -21 rlineto
          hintmask 01000110
          -12 -502 -33 -14 -29 -16 -26 -18 rlinecurve
          6 -32 rlineto
          292 hlineto
          hintmask 10000110
          1 47 -85 21 3 235 -15 174 rlineto
          hintmask 00100110
          175 -484 128 23 176 465 -14 -178 rlineto
          hintmask 01000110
          1 -224 -31 -14 -29 -15 -25 -18 rlinecurve
          6 -32 rlineto
          343 hlineto
          hintmask 10001110
          1 47 -92 23 -8 501 32 14 262 callgsubr
          -258 hlineto
          -175 -470 rlineto
          hintmask 01000110
          -168 469 1 1 rlineto
          endchar
        </CharString>
        <CharString name="N">
          -78 callsubr
          endchar
        </CharString>
        <CharString name="NULL">
          -211 endchar
        </CharString>
        <CharString name="Nacute">
          -78 callsubr
          256 654 -61 callsubr
        </CharString>
        <CharString name="Ncaron">
          -78 callsubr
          138 816 -58 callgsubr
        </CharString>
        <CharString name="Ncommaaccent">
          127 0 53 -53 67 -67 79 -71 -21 622 53 -32 32 hstemhm
          109 125 119 124 83 -12 callgsubr
          303 -180 -87 callsubr
        </CharString>
        <CharString name="Ntilde">
          127 0 53 -53 67 -67 79 -71 -21 622 53 -32 32 121 119 hstemhm
          109 125 326 -12 callgsubr
          178 691 -66 callsubr
          endchar
        </CharString>
        <CharString name="O">
          26 257 callgsubr
          -96 callsubr
          endchar
        </CharString>
        <CharString name="OE">
          319 -16 96 -80 103.5 -103.5 212 72.5 95 80.5 202 -96 96 -82 100 hstemhm
          31 181 245 181 hintmask 1001001110000000
          384 80 rmoveto
          -119 -53 125 132 97 29 93 50 41 hvcurveto
          9 24 25 3 27 hhcurveto
          30 33 -5 -12 27 hvcurveto
          -468 vlineto
          -10 -22 -27 -5 -24 hhcurveto
          hintmask 0101100110000000
          543 380 rmoveto
          hintmask 0101010110000000
          14 67 7 92 -3 43 rrcurveto
          -449 hlineto
          hintmask 1001001110000000
          12 -35 -38 6 -40 hhcurveto
          -178 -174 -121 -228 -240 178 -107 167 hvcurveto
          hintmask 0101010110000000
          39 39 4 12 37 hvcurveto
          449 4 hlineto
          hintmask 0011010110000000
          7 55 6 92 -2 57 -99 8 rcurveline
          hintmask 0101010110000000
          -35 -107 -179 -11 rlineto
          191 vlineto
          207 -9 rlineto
          108 vlineto
          -207 -17 rlineto
          200 vlineto
          171 -10 rlineto
          hintmask 0101100110000000
          18 -101 rlineto
          endchar
        </CharString>
        <CharString name="Oacute">
          26 257 callgsubr
          -96 callsubr
          -78 101 -61 callsubr
        </CharString>
        <CharString name="Ocircumflex">
          26 257 callgsubr
          -96 callsubr
          -135 119 20 callgsubr
          endchar
        </CharString>
        <CharString name="Odieresis">
          26 257 callgsubr
          -96 callsubr
          -112 331 -100 callgsubr
          endchar
        </CharString>
        <CharString name="Ograve">
          26 257 callgsubr
          -96 callsubr
          -77 325 70 callgsubr
          endchar
        </CharString>
        <CharString name="Ohungarumlaut">
          26 257 callgsubr
          -96 callsubr
          -87 124 55 callgsubr
        </CharString>
        <CharString name="Omacron">
          26 257 callgsubr
          60 99 -96 callsubr
          -183 231 38 callsubr
          endchar
        </CharString>
        <CharString name="Oslash">
          47 -20 97 -56 -21 585 97 hstemhm
          11 190 285 190 hintmask 01111000
          176 -90 rmoveto
          50 90 rlineto
          hintmask 10111000
          -13 38 42 -7 42 hhcurveto
          171 157 112 230 126 -47 96 -71 61 hvcurveto
          54 98 -75 43 -52 -95 rlineto
          20 -44 -49 11 -51 hhcurveto
          -184 -146 -138 -218 hvcurveto
          hintmask 01111000
          -135 56 -96 82 -56 vhcurveto
          -48 -88 rlineto
          227 634 rmoveto
          40 31 -17 -29 25 hvcurveto
          -196 -356 rlineto
          -18 44 -9 56 63 vvcurveto
          109 28 83 37 34 vhcurveto
          8 20 21 5 21 hhcurveto
          hintmask 10111000
          38 -508 rmoveto
          -32 -28 10 18 -23 hvcurveto
          187 340 rlineto
          11 -39 5 -43 -44 vvcurveto
          -105 -30 -89 -43 -40 vhcurveto
          -5 -14 -14 -3 -19 hhcurveto
          endchar
        </CharString>
        <CharString name="Otilde">
          26 257 callgsubr
          101 119 -96 callsubr
          -156 138 -66 callsubr
          endchar
        </CharString>
        <CharString name="P">
          -4 0 53 -53 72 161.5 92.5 242 102 -87 87 -72 72 -61 61 -8 -20 hstemhm
          104 181 177 183 hintmask 1010000110000000
          31 662 rmoveto
          hintmask 1010001010000000
          -1 -53 rlineto
          hintmask 0110010010000000
          74 -11 rlineto
          -522 vlineto
          hintmask 1010000110000000
          -29 -13 -26 -15 -24 -16 6 -32 rcurveline
          375 311 callsubr
          hintmask 0110010011000000
          -122 19 rlineto
          161 vlineto
          100 1 rlineto
          157 1 103 93 119 vvcurveto
          114 -92 111 -177 -2 vhcurveto
          -24 -344 rmoveto
          -16 -25 2 6 -26 hvcurveto
          hintmask 1011000010000000
          234 vlineto
          hintmask 1010100011000000
          124 15 rlineto
          35 -22 18 -61 -50 vvcurveto
          hintmask 0110010011000000
          -65 -33 -59 -77 vhcurveto
          endchar
        </CharString>
        <CharString name="Q">
          63 257 callgsubr
          hstem
          11 190 285 190 vstem
          11 326 rmoveto
          -229 161 -117 176 8 7 0 1 8 vhcurveto
          287 -173 81 152 -233 56 rlineto
          99 49 71 102 155 vvcurveto
          230 -156 130 -179 -184 -146 -138 -218 vhcurveto
          317 259 rmoveto
          109 49 -131 -135 -105 -30 -89 -43 -40 hvcurveto
          -5 -14 -14 -3 -19 hhcurveto
          -107 -58 111 158 109 28 83 37 34 hvcurveto
          8 20 21 5 21 hhcurveto
          endchar
        </CharString>
        <CharString name="R">
          -83 callsubr
          endchar
        </CharString>
        <CharString name="Racute">
          -83 callsubr
          -130 16 -61 callsubr
        </CharString>
        <CharString name="Rcaron">
          -83 callsubr
          -248 178 -58 callgsubr
        </CharString>
        <CharString name="Rcommaaccent">
          58 0 57.5 194 85.5 231 102 -87 87 -72 72 -61 61 -8 -20 77 callsubr
          24 124 26 185 hintmask 1100001101000000
          346 337 rmoveto
          -16 -20 2 5 -20 hvcurveto
          hintmask 1110000101000000
          224 vlineto
          hintmask 1101000101000000
          123 15 rlineto
          35 -29 16 -49 -47 vvcurveto
          hintmask 1100001101000000
          -69 -33 -52 -85 vhcurveto
          -311 325 rmoveto
          hintmask 1100010101000000
          -1 -53 rlineto
          hintmask 1100100101000000
          75 -11 rlineto
          -519 90 callgsubr
          342 hlineto
          1 53 -83 13 rlineto
          185 vlineto
          66 1 132 -252 rlineto
          224 hlineto
          1 53 -61 9 -133 215 rlineto
          80 36 50 70 78 vvcurveto
          112 -104 97 -171 vhcurveto
          hintmask 1100001111000000
          -86 -818 -87 callsubr
        </CharString>
        <CharString name="S">
          -79 callsubr
          endchar
        </CharString>
        <CharString name="Sacute">
          -79 callsubr
          165 209 -61 callsubr
        </CharString>
        <CharString name="Scaron">
          -79 callsubr
          47 371 -58 callgsubr
        </CharString>
        <CharString name="Scedilla">
          -61 359 callgsubr
          63 -21 468 229 -85 85 hstemhm
          51 170 77 125 -37 178 hintmask 11011100
          343 callgsubr
          hintmask 11011010
          82 -38 65 -27 -59 vvcurveto
          -27 -15 -30 -39 -18 vhcurveto
          -37 1 -40 7 -39 14 -65 145 rcurveline
          -81 hlineto
          -13 -52 -9 -96 5 -43 -1 -2 rcurveline
          hintmask 11011100
          52 -30 74 -20 66 -7 -45 -55 rcurveline
          -23 callsubr
          22 38 rlineto
          hintmask 11011010
          136 4 113 73 128 vvcurveto
          122 -94 52 -91 42 vhcurveto
          -85 39 -73 26 55 vvcurveto
          25 13 32 32 18 vhcurveto
          40 -1 39 -6 37 -15 rrcurveto
          hintmask 11101010
          39 -122 rlineto
          92 hlineto
          hintmask 11011010
          14 59 5 77 2 55 rrcurveto
          20 -54 -87 18 -73 hhcurveto
          hintmask 11011100
          -157 -112 -82 -123 hvcurveto
          endchar
        </CharString>
        <CharString name="Scommaaccent">
          -61 -19 87 385 229 -85 85 hstemhm
          51 170 38 124 3 178 hintmask 10111000
          343 callgsubr
          hintmask 10110100
          82 -38 65 -27 -59 vvcurveto
          -27 -15 -30 -39 -18 vhcurveto
          -37 1 -40 7 -39 14 -65 145 rcurveline
          -81 hlineto
          -13 -52 -9 -96 5 -43 -1 -2 rcurveline
          -40 68 107 -21 76 hhcurveto
          141 120 73 132 122 -94 52 -91 42 hvcurveto
          -85 39 -73 26 55 vvcurveto
          25 13 32 32 18 vhcurveto
          40 -1 39 -6 37 -15 rrcurveto
          hintmask 11010100
          39 -122 rlineto
          92 hlineto
          hintmask 10110100
          14 59 5 77 2 55 rrcurveto
          20 -54 -87 18 -73 hhcurveto
          hintmask 10111000
          -157 -112 -82 -123 hvcurveto
          182 -625 -87 callsubr
        </CharString>
        <CharString name="T">
          140 callsubr
          -58 callsubr
          endchar
        </CharString>
        <CharString name="Tcaron">
          140 callsubr
          -58 callsubr
          -24 816 -58 callgsubr
        </CharString>
        <CharString name="Thorn">
          -17 275 callgsubr
          81 62.5 84.5 204 92 93 33 hstemhm
          114 181 151 178 hintmask 10011110
          36 650 rmoveto
          -1 -53 79 -13 rlineto
          hintmask 00111110
          -503 vlineto
          hintmask 10011110
          -25 -12 -39 -18 -23 -17 6 -34 rcurveline
          352 311 callsubr
          hintmask 01011111
          -91 15 rlineto
          75 vlineto
          86 1 rlineto
          162 1 81 91 95 vvcurveto
          95 -82 98 -165 vhcurveto
          -82 49 hlineto
          25 12 35 16 21 16 -6 33 rcurveline
          -34 -422 rmoveto
          -15 -13 2 3 -13 hvcurveto
          186 vlineto
          94 13 rlineto
          39 -27 18 -39 -38 vvcurveto
          -54 -36 -46 -74 vhcurveto
          endchar
        </CharString>
        <CharString name="U">
          -92 callsubr
          endchar
        </CharString>
        <CharString name="Uacute">
          -92 callsubr
          -60 24 -61 callsubr
        </CharString>
        <CharString name="Ucircumflex">
          -92 callsubr
          -117 42 20 callgsubr
          endchar
        </CharString>
        <CharString name="Udieresis">
          -92 callsubr
          -94 254 -100 callgsubr
          endchar
        </CharString>
        <CharString name="Ugrave">
          -92 callsubr
          -59 248 70 callgsubr
          endchar
        </CharString>
        <CharString name="Uhungarumlaut">
          -92 callsubr
          -69 47 55 callgsubr
        </CharString>
        <CharString name="Umacron">
          94 -20 100 529 53 -32 32 80 99 hstemhm
          84 181 273 125 hintmask 10111100
          8 662 rmoveto
          hintmask 11011100
          276 callgsubr
          -296 vlineto
          -218 135 -103 175 149 120 77 233 vhcurveto
          hintmask 10111100
          0 callgsubr
          hintmask 11011100
          -1 -53 83 -13 rlineto
          -306 vlineto
          -89 -14 -64 -29 -32 vhcurveto
          -16 -22 -26 -9 -35 hhcurveto
          -85 -62 54 127 hvcurveto
          hintmask 10111100
          40 callsubr
          -165 154 38 callsubr
          endchar
        </CharString>
        <CharString name="Uogonek">
          94 -284 91 -3 -21 197 100 529 53 -32 32 hstemhm
          84 181 -11 119 165 125 hintmask 01101101
          8 662 rmoveto
          hintmask 01110101
          276 callgsubr
          -296 vlineto
          -211 127 -103 166 -7 vhcurveto
          hintmask 10101011
          -81 -43 -42 -56 -53 vvcurveto
          297 callgsubr
          hintmask 01101101
          126 67 rlineto
          hintmask 10101011
          195 callgsubr
          49 48 40 69 44 vhcurveto
          102 30 71 87 180 vvcurveto
          0 callgsubr
          hintmask 01110101
          -1 -53 83 -13 rlineto
          -306 vlineto
          -89 -14 -64 -29 -32 vhcurveto
          -16 -22 -26 -9 -35 hhcurveto
          -85 -62 54 127 hvcurveto
          hintmask 01101101
          40 callsubr
          endchar
        </CharString>
        <CharString name="Uring">
          94 -20 100 529 53 -32 32 48 48 116 82 hstemhm
          84 181 -10 65 117 64 37 125 hintmask 1011110110000000
          8 662 rmoveto
          hintmask 1101110110000000
          276 callgsubr
          -296 vlineto
          -218 135 -103 175 149 120 77 233 vhcurveto
          hintmask 1011110110000000
          0 callgsubr
          hintmask 1101110110000000
          -1 -53 83 -13 rlineto
          -306 vlineto
          -89 -14 -64 -29 -32 vhcurveto
          -16 -22 -26 -9 -35 hhcurveto
          -85 -62 54 127 hvcurveto
          hintmask 1011110110000000
          40 callsubr
          hintmask 1011101110000000
          38 48 -72 callgsubr
          endchar
        </CharString>
        <CharString name="V">
          63 5 -21 38 -21 608 53 -32 32 hstemhm
          -3 729 hintmask 01011000
          -2 662 rmoveto
          hintmask 10101000
          -1 -53 72 -11 217 -614 58 3 58 6 46 8 rlinecurve
          -1 1 rlineto
          hintmask 01011000
          202 585 29 13 26 14 22 16 217 callsubr
          -272 hlineto
          hintmask 01101000
          -1 -53 88 -14 -156 -472 rlineto
          -8 hlineto
          -13 137 rlineto
          hintmask 01011000
          -103 326 30 13 27 15 23 16 217 callsubr
          endchar
        </CharString>
        <CharString name="W">
          356 5 -21 625 53 -32 32 hstemhm
          3 1016 hintmask 10110000
          777 1 rmoveto
          169 588 27 12 25 14 21 15 217 callsubr
          -276 hlineto
          hintmask 11010000
          -1 -53 95 -15 -127 -471 rlineto
          -2 hlineto
          -9 157 -105 378 -170 -37 43 -137 -104 -361 rlineto
          -6 hlineto
          -7 141 rlineto
          hintmask 10110000
          -87 321 30 14 27 14 23 17 217 callsubr
          -327 hlineto
          hintmask 11010000
          -1 -53 68 -11 197 -614 60 3 52 5 46 9 rlinecurve
          1 hlineto
          62 203 23 117 106 -337 rlineto
          hintmask 10110000
          60 3 52 5 47 9 rrcurveto
          endchar
        </CharString>
        <CharString name="X">
          52 0 53 556 53 -32 32 hstemhm
          -2 729 hintmask 10110000
          423 662 rmoveto
          hintmask 11010000
          -1 -53 76 -12 -99 -159 rlineto
          hintmask 10110000
          -110 162 19 9 17 10 15 11 217 callsubr
          -309 hlineto
          hintmask 11010000
          -1 -53 65 -10 176 -260 -181 -260 -32 -14 -28 -15 -26 -18 rlinecurve
          6 -32 rlineto
          286 hlineto
          1 53 -79 13 117 179 122 -180 -21 -10 -19 -11 -17 -12 rlinecurve
          6 -32 rlineto
          326 hlineto
          1 53 -73 11 -195 287 rlineto
          hintmask 10110000
          153 233 31 14 28 15 24 17 217 callsubr
          endchar
        </CharString>
        <CharString name="Y">
          -71 callgsubr
          endchar
        </CharString>
        <CharString name="Yacute">
          -71 callgsubr
          -26 24 -61 callsubr
        </CharString>
        <CharString name="Ydieresis">
          -71 callgsubr
          -60 254 -100 callgsubr
          endchar
        </CharString>
        <CharString name="Z">
          -75 callsubr
          endchar
        </CharString>
        <CharString name="Zacute">
          -75 callsubr
          212 607 -61 callsubr
        </CharString>
        <CharString name="Zcaron">
          -75 callsubr
          95 769 -58 callgsubr
        </CharString>
        <CharString name="Zdotaccent">
          -75 callsubr
          303 838 -57 callgsubr
        </CharString>
        <CharString name="a">
          54 callsubr
          196 callgsubr
          hintmask 01011100
          -102 callsubr
          hintmask 10111100
          -68 callsubr
          endchar
        </CharString>
        <CharString name="aacute">
          54 callsubr
          196 callgsubr
          hintmask 01011100
          -102 callsubr
          hintmask 10111100
          -68 callsubr
          210 608 -64 callsubr
        </CharString>
        <CharString name="abreve">
          54 callsubr
          63 93 hstemhm
          30 171 -104 98 106 173 -150 111 hintmask 0101110100000000
          -102 callsubr
          hintmask 1011110100000000
          -68 callsubr
          hintmask 0101101010000000
          106 632 26 callsubr
        </CharString>
        <CharString name="acircumflex">
          54 callsubr
          196 callgsubr
          hintmask 01011100
          -102 callsubr
          hintmask 10111100
          -68 callsubr
          -74 442 -16 callgsubr
        </CharString>
        <CharString name="acute">
          -362 534 256 hstem
          18 262 vstem
          280 695 -64 callsubr
        </CharString>
        <CharString name="acutecomb">
          534 256 hstem
          -99 262 vstem
          163 695 -64 callsubr
        </CharString>
        <CharString name="acutecomb.case">
          686 224 hstem
          -140 306 vstem
          -93 686 -61 callsubr
        </CharString>
        <CharString name="adieresis">
          54 callsubr
          196 callgsubr
          hintmask 01011100
          -102 callsubr
          hintmask 10111100
          -68 callsubr
          -81 652 -100 callgsubr
          endchar
        </CharString>
        <CharString name="ae">
          132 -16 98 -98 250 -249 111 79 59 -4 82 101 85 -81 83 hstemhm
          30 171 -143 719 -474.5 166.5 hintmask 0100010101000000
          72 295 rmoveto
          104 -3 24 110 14 6 23 4 19 1 rlinecurve
          25 -12 20 -24 1 -63 1 -78 rcurveline
          -192 -4 rlineto
          -57 -29 -24 -48 -41 vvcurveto
          -68 66 -77 120 18 vhcurveto
          hintmask 0010101001000000
          148 82 56 -64 89 -31 99 14 rlinecurve
          157 89 -25 57 rlineto
          -25 -47 -37 -13 -45 hhcurveto
          -76 -61 41 94 -9 hvcurveto
          hintmask 0010101010000000
          248 -2 57 57 7 1 rlineto
          153 2 -120 60 -100 hhcurveto
          -52 -50 -17 -30 -42 hvcurveto
          -23 25 -28 19 -30 1 rrcurveto
          hintmask 0010101001000000
          -77 -111 -24 -33 -85 hvcurveto
          hintmask 0100010101000000
          -6 -49 4 -51 13 -46 rrcurveto
          hintmask 1001001101000000
          146 -213 rmoveto
          -12 11 -5 18 14 vvcurveto
          42 54 9 49 -1 vhcurveto
          6 hlineto
          5 -23 8 -21 10 -19 -33 -11 -52 -17 -30 -2 rrcurveto
          314 335 rmoveto
          hintmask 0010101001000000
          47 -2 34 -46 8 -52 -152 -10 rcurveline
          hintmask 1001001101000000
          8 46 20 42 35 22 rrcurveto
          endchar
        </CharString>
        <CharString name="agrave">
          54 callsubr
          196 callgsubr
          hintmask 01011100
          -102 callsubr
          hintmask 10111100
          -68 callsubr
          147 515 27 callgsubr
        </CharString>
        <CharString name="amacron">
          54 callsubr
          80 99 -53 53 196 callgsubr
          hintmask 01011011
          -102 callsubr
          hintmask 10111011
          -68 callsubr
          -120 554 rmoveto
          6 -74 rlineto
          311 hlineto
          hintmask 01010111
          47 46 rlineto
          hintmask 01011011
          -5 53 rlineto
          -246 hlineto
          hintmask 10111011
          -31 -43 -6 -19 -39 hvcurveto
          endchar
        </CharString>
        <CharString name="ampersand">
          40 -28 98 286 117 91 104 0 -20 hstemhm
          12 160 -139 156 282 141 hintmask 11011010
          390 287 rmoveto
          20 13 18 11 18 10 rrcurveto
          16 -32 9 -37 -35 vvcurveto
          -49 -17 -45 -38 -30 vhcurveto
          -16 -28 -41 -7 -31 hhcurveto
          -75 -69 37 74 61 49 47 86 -2 hvcurveto
          17 74 rlineto
          hintmask 11100110
          -105 38 rlineto
          -20 22 -10 27 24 vvcurveto
          40 26 38 35 14 vhcurveto
          182 -76 53 136 rlineto
          30 -67 -80 14 -63 hhcurveto
          -160 -82 -89 -85 -50 28 -49 58 -29 hvcurveto
          hintmask 11011010
          -60 -27 -47 -55 -80 vvcurveto
          -138 135 -94 171 186 108 112 141 42 -10 46 -21 43 vhcurveto
          43 -3 35 -21 37 -24 43 123 rcurveline
          -82 80 -118 -38 -187 -115 rrcurveto
          endchar
        </CharString>
        <CharString name="aogonek">
          -98 -254 92 146 20 -20 98 93 59 268 -20 hstemhm
          30 171 57 119 -76 173 hintmask 11011101
          30 114 rmoveto
          -68 66 -77 120 18 vhcurveto
          106 69 12 -22 16 -18 18 -12 rlinecurve
          hintmask 11011110
          -73 -43 -37 -52 -51 93 callsubr
          50 51 41 73 44 vhcurveto
          hintmask 11011101
          55 31 335 callsubr
          -21 -15 -2 -15 hhcurveto
          -16 -9 10 14 hvcurveto
          205 vlineto
          59 -2 27 -10 16 vhcurveto
          48 -34 -52 25 -55 hhcurveto
          -55 -123 -24 -32 -83 hvcurveto
          -6 -50 7 -56 16 -45 98 2 rcurveline
          24 110 14 6 23 5 19 1 rlinecurve
          25 -13 21 -25 -63 vvcurveto
          -82 vlineto
          -190 -4 rlineto
          -57 -29 -24 -48 -41 vvcurveto
          hintmask 10111101
          -68 callsubr
          endchar
        </CharString>
        <CharString name="approxequal">
          -86 136 119 75 119 hstem
          55 470 vstem
          109 270 -66 callsubr
          54 -234 -66 callsubr
          endchar
        </CharString>
        <CharString name="aring">
          54 callsubr
          46 48 116 82 hstemhm
          30 171 -59 65 94 173 -150 64 hintmask 0101011010000000
          -102 callsubr
          hintmask 1011011010000000
          -68 callsubr
          hintmask 0101110101000000
          51 446 -72 callgsubr
          endchar
        </CharString>
        <CharString name="asciicircum">
          -164 539 111 hstem
          16 469 vstem
          16 374 rmoveto
          86 -53 143 218 rlineto
          7 hlineto
          152 -216 81 53 -193 274 rlineto
          -90 hlineto
          endchar
        </CharString>
        <CharString name="asciitilde">
          -56 249 119 hstem
          70 470 vstem
          124 189 -66 callsubr
          endchar
        </CharString>
        <CharString name="asterisk">
          -243 668 -20 hstem
          -4 394 vstem
          16 651 rmoveto
          116 -67 30 55 -10 14 62 -13 102 129 -134 15 -30 -131 -83 122 rlineto
          293 -107 rmoveto
          -134 -15 9 -61 153 -54 rlineto
          -82 -77 rmoveto
          -53 123 -57 -26 -6 -164 rlineto
          -97 60 rmoveto
          101 89 -42 46 -158 -42 rlineto
          endchar
        </CharString>
        <CharString name="at">
          422 -17 113 -112 97 93 59.5 179.5 83 105 129 hstemhm
          50 167 101 171 100 173 117 164 hintmask 0111111110000000
          487 402 rmoveto
          13 5 23 5 20 1 rrcurveto
          24 -12 22 -25 -63 vvcurveto
          -77 vlineto
          -190 -5 rlineto
          -57 -28 -24 -49 -41 vvcurveto
          -68 66 -76 120 18 vhcurveto
          hintmask 1011111110000000
          106 69 25 -46 44 -32 91 5 rlinecurve
          179 30 94 148 155 vvcurveto
          200 -154 214 -333 -325 -181 -203 -222 -121 53 -127 112 -105 vhcurveto
          92 57 rlineto
          -60 84 -30 92 87 vvcurveto
          178 122 151 222 204 114 -128 -164 -75 -25 -84 -42 -38 vhcurveto
          -21 -19 -29 -8 39 vvcurveto
          197 vlineto
          60 -2 27 -10 16 vhcurveto
          42 -28 -59 30 -55 hhcurveto
          -59 -119 -24 -31 -84 hvcurveto
          -4 -50 7 -53 15 -49 99 1 rcurveline
          hintmask 0111111110000000
          43 -209 rmoveto
          -12 11 -5 18 14 vvcurveto
          42 52 10 48 -2 vhcurveto
          -74 vlineto
          -25 -8 -30 -9 -28 -2 rrcurveto
          endchar
        </CharString>
        <CharString name="atilde">
          54 callsubr
          141 114 196 callgsubr
          hintmask 01011110
          -102 callsubr
          hintmask 10111110
          -68 callsubr
          -110 463 -36 callgsubr
        </CharString>
        <CharString name="b">
          -88 -18 94 297 121 hstem
          56 173 148 178 vstem
          175 737 rmoveto
          -70 -4 -70 -12 -58 -21 4 -50 rcurveline
          75 -13 rlineto
          -616 vlineto
          -1 -1 rlineto
          -24 70 76 -14 63 166 callgsubr
          -106 -77 rlineto
          273 vlineto
          163 callsubr
        </CharString>
        <CharString name="backslash">
          -251 -126 857 hstem
          -29 435 vstem
          406 -78 rmoveto
          -308 809 -127 -50 307 -807 rlineto
          endchar
        </CharString>
        <CharString name="bar">
          -338 -225 960 -939 -21 hstemhm
          96 128.5 hintmask 01100000
          225 -225 rmoveto
          hintmask 10100000
          -1 960 rlineto
          -128 -960 hlineto
          endchar
        </CharString>
        <CharString name="braceleft">
          -132 -145 115 650 109 hstem
          157 178 vstem
          443 -36 rmoveto
          -114 12 12 173 5 53 -21 50 -40 43 rlinecurve
          9 vlineto
          40 42 21 51 -5 52 -12 171 rcurveline
          117 hlineto
          -6 109 rlineto
          -201 -14 -82 -93 -79 vvcurveto
          -100 vlineto
          -69 -7 -41 -80 -6 vhcurveto
          -6 -59 rlineto
          88 -6 5 -39 -81 vvcurveto
          -114 vlineto
          -70 96 -93 180 -10 vhcurveto
          endchar
        </CharString>
        <CharString name="braceright">
          -129 -145 115 650 109 hstem
          195 178 vstem
          373 28 rmoveto
          114 vlineto
          81 5 39 88 6 vhcurveto
          -6 59 rlineto
          -80 6 -7 41 69 vvcurveto
          100 vlineto
          79 -82 93 -201 14 vhcurveto
          -6 -109 rlineto
          117 hlineto
          -12 -171 -4 -52 22 -51 38 -42 rlinecurve
          -9 vlineto
          -38 -43 -22 -50 4 -53 12 -173 rcurveline
          -114 -12 10 -109 rlineto
          180 10 96 93 70 vvcurveto
          endchar
        </CharString>
        <CharString name="bracketleft">
          -244 -122 62 710 62 hstem
          88 171 vstem
          88 712 rmoveto
          -834 295 vlineto
          6 62 -130 34 rlineto
          642 vlineto
          130 34 -6 62 rlineto
          endchar
        </CharString>
        <CharString name="bracketright">
          -243 -122 834 hstem
          158 171 vstem
          28 650 rmoveto
          130 -34 rlineto
          -642 vlineto
          -130 -34 6 -62 rlineto
          295 834 -295 hlineto
          endchar
        </CharString>
        <CharString name="breve">
          -275 550 93 hstem
          28 98 129 111 vstem
          255 719 26 callsubr
        </CharString>
        <CharString name="brokenbar">
          -339 -76 258 176 258 hstem
          96 128 vstem
          224 358 rmoveto
          258 -128 -258 vlineto
          128 -434 rmoveto
          258 -128 -258 vlineto
          endchar
        </CharString>
        <CharString name="bullet">
          -244 95 320 hstem
          58 301 vstem
          199 415 rmoveto
          -74 -41 -53 -59 -14 -86 34 -65 55 -44 77 -25 70 35 44 55 21 69 -25 74 -61 56 -74 31 rrcurveto
          endchar
        </CharString>
        <CharString name="bulletoperator">
          -379 169 193 hstem
          30 194 vstem
          224 277 33 callsubr
        </CharString>
        <CharString name="c">
          -43 callgsubr
          endchar
        </CharString>
        <CharString name="cacute">
          -43 callgsubr
          -26 619 -64 callsubr
        </CharString>
        <CharString name="caron">
          -207 541 234 hstem
          29 404 vstem
          29 695 -46 callgsubr
        </CharString>
        <CharString name="ccaron">
          -43 callgsubr
          -397 619 -46 callgsubr
        </CharString>
        <CharString name="ccedilla">
          -198 359 callgsubr
          41 112 -91 -21 27 -21 419 91 0 -20 hstemhm
          11 167 72 125 hintmask 11001011
          427 126 rmoveto
          -19 -39 -36 -11 -34 hhcurveto
          -92 -48 72 97 45 11 59 37 40 hvcurveto
          40 -22 32 -39 28 -55 137 77 rcurveline
          88 -26 -84 42 -89 hhcurveto
          -142 -111 -105 -156 hvcurveto
          hintmask 10010111
          -132 82 -92 108 -25 vhcurveto
          -50 -60 -23 callsubr
          hintmask 10100111
          23 41 rlineto
          13 12 1 2 13 hvcurveto
          hintmask 11000111
          145 84 rlineto
          endchar
        </CharString>
        <CharString name="cedilla">
          -375 359 callgsubr
          -58 121 hstemhm
          131 125 hintmask 01100000
          162 49 callgsubr
        </CharString>
        <CharString name="cent">
          -186 -117 226 375 -20 hstem
          11 167 38 98 vstem
          216 -117 rmoveto
          98 128 hlineto
          137 75 -24 51 rlineto
          -18 -39 -36 -10 -34 hhcurveto
          -92 -48 68 91 42 11 55 37 38 hvcurveto
          40 -21 32 -37 28 -51 137 72 rcurveline
          -21 67 -59 38 -69 13 rrcurveto
          115 -98 -115 vlineto
          -118 -19 -87 -92 -130 vvcurveto
          -130 90 -88 115 -18 vhcurveto
          endchar
        </CharString>
        <CharString name="circumflex">
          -228 529 214 hstem
          27 380 vstem
          92 529 -16 callgsubr
        </CharString>
        <CharString name="colon">
          -299 1 -21 511 -20 hstem
          78 190 vstem
          168 183 rmoveto
          -48 -27 -34 -37 -8 -54 156 callsubr
          rrcurveto
          308 vmoveto
          -48 -25 -34 -39 -8 -53 22 -42 35 -28 48 -15 348 callsubr
          45 -40 35 -48 21 rrcurveto
          endchar
        </CharString>
        <CharString name="comma">
          -353 -142 323 hstemhm
          49 201 -132 132 hintmask 11000000
          92 -142 153 callsubr
        </CharString>
        <CharString name="copyright">
          123 -24 77 83 97 380 78 hstem
          33 79 88 131 341 78 vstem
          750 331 rmoveto
          201 -163 159 -198 -198 -158 -159 -200 -202 160 -154 199 200 158 156 199 vhcurveto
          -638 -1 rmoveto
          159 126 124 154 154 126 -125 -155 -154 -122 -126 -161 -156 -121 120 157 vhcurveto
          428 -81 rmoveto
          -10 -29 -22 -6 -28 hhcurveto
          -85 -45 51 65 35 14 45 29 29 hvcurveto
          42 -20 23 -31 21 -47 110 60 rcurveline
          83 -37 -61 26 -67 hhcurveto
          -118 -87 -81 -118 -130 106 -75 124 11 hvcurveto
          128 68 rlineto
          endchar
        </CharString>
        <CharString name="currency">
          -151 161 92 203 94 hstem
          69 102 166 102 vstem
          254 161 rmoveto
          33 35 10 18 29 hvcurveto
          59 -64 50 49 -58 63 rlineto
          23 31 14 40 49 vvcurveto
          49 -13 39 -21 31 vhcurveto
          57 63 -54 45 -52 -61 rlineto
          18 -29 -34 9 -35 hhcurveto
          -35 -35 -10 -19 -30 hvcurveto
          -57 64 -53 -47 58 -65 rlineto
          -23 -31 -14 -39 -46 vvcurveto
          -48 15 -43 25 -34 vhcurveto
          -55 -62 52 -47 53 64 rlineto
          -17 27 33 -9 35 hhcurveto
          17 92 rmoveto
          -70 -30 55 55 37 14 35 20 18 hvcurveto
          2 13 9 1 11 hhcurveto
          74 25 -55 -53 -39 -14 -37 -18 -15 hvcurveto
          -3 -12 -14 -1 -8 hhcurveto
          endchar
        </CharString>
        <CharString name="d">
          270 callgsubr
          hintmask 11001000
          582 101 rmoveto
          342 callsubr
          565 vlineto
          9 callsubr
          hintmask 10101000
          -145 vlineto
          hintmask 11011000
          52 callsubr
          rlineto
          -298 53 91 callgsubr
          endchar
        </CharString>
        <CharString name="dagger">
          -94 -180 867 -310 92 hstemhm
          188 183 -166 144 hintmask 01100000
          185 284 callgsubr
          hintmask 01010000
          151 hlineto
          hintmask 10010000
          20 -557 rlineto
          121 hlineto
          hintmask 01010000
          26 557 rlineto
          124 hlineto
          43 57 -6 35 rlineto
          hintmask 01100000
          -157 hlineto
          hintmask 10100000
          10 216 -151 4 rlineto
          endchar
        </CharString>
        <CharString name="daggerdbl">
          -90 -180 867 -552 91 151 92 hstemhm
          192 183 -173.5 161 -149 134 hintmask 01110000
          189 284 callgsubr
          hintmask 01101000
          151 hlineto
          5 -151 rlineto
          -123 hlineto
          -43 -56 6 -35 rlineto
          hintmask 01100100
          164 hlineto
          hintmask 10000100
          11 -315 rlineto
          121 hlineto
          hintmask 01100100
          15 315 rlineto
          131 hlineto
          43 56 -6 35 rlineto
          hintmask 01101000
          -164 hlineto
          7 151 rlineto
          124 hlineto
          43 57 -6 35 rlineto
          hintmask 01110000
          -157 hlineto
          hintmask 10010000
          10 216 -151 4 rlineto
          endchar
        </CharString>
        <CharString name="dcaron">
          270 callgsubr
          111 129 hintmask 11011100
          582 101 rmoveto
          342 callsubr
          565 vlineto
          9 callsubr
          hintmask 10111100
          -145 vlineto
          hintmask 11011100
          52 callsubr
          rlineto
          -298 53 91 callgsubr
          295 595 rmoveto
          31 callgsubr
        </CharString>
        <CharString name="dcroat">
          -55 -17 127 296 91 -5 -20 60 71 hstemhm
          11 180 142 173 hintmask 11010100
          599 568 rmoveto
          -6 35 rlineto
          -87 84 hlineto
          9 callsubr
          -34 -72 vlineto
          -43 -36 6 -35 rlineto
          109 hlineto
          hintmask 10110100
          -40 vlineto
          hintmask 11011100
          52 callsubr
          -6 44 rlineto
          342 callsubr
          410 50 vlineto
          -266 -422 91 callgsubr
          endchar
        </CharString>
        <CharString name="degree">
          -292 379 76 123 79 hstem
          30 86 103 90 vstem
          175 455 rmoveto
          -40 -19 34 33 18 6 18 10 13 hvcurveto
          5 10 10 2 10 hhcurveto
          37 20 -35 -34 -19 -6 -18 -12 -13 hvcurveto
          -3 -9 -9 -1 -8 hhcurveto
          -3 -76 rmoveto
          80 57 54 84 79 -61 61 -80 -78 -60 -61 -79 -83 66 -55 76 hvcurveto
          endchar
        </CharString>
        <CharString name="dieresis">
          -149 549 190 hstem
          46 423 vstem
          129 739 -100 callgsubr
          endchar
        </CharString>
        <CharString name="divide">
          -65 1 -21 227 284 callsubr
          -248 -143 rmoveto
          -30 -17 -43 -32 -8 -57 14 -26 28 -37 54 -14 46 22 21 42 9 27 -9 28 -27 40 -55 24 rrcurveto
          1 368 rmoveto
          -30 -17 -43 -33 -8 -56 14 -27 28 -36 54 -14 46 22 21 41 9 27 -9 29 -27 40 -55 24 rrcurveto
          endchar
        </CharString>
        <CharString name="dollar">
          -63 -145 213 -63 -21 25 -21 609 188 -109 -20 23 -20 hstemhm
          51 170 30 123 12 178 hintmask 1000010100000000
          374 -145 rmoveto
          hintmask 0010010100000000
          133 vlineto
          hintmask 0011001110000000
          108 20 82 69 109 vvcurveto
          122 -94 52 -91 42 vhcurveto
          -85 39 -73 26 55 vvcurveto
          25 13 32 32 18 vhcurveto
          40 -1 39 -6 37 -15 39 -122 rcurveline
          92 hlineto
          hintmask 0010010110000000
          14 59 5 77 2 55 rrcurveto
          hintmask 0010010100000000
          -41 15 -61 14 -59 6 rrcurveto
          hintmask 0011000100000000
          106 -122 vlineto
          hintmask 0010100100000000
          -109 vlineto
          hintmask 1000101110000000
          -120 -20 -80 -75 -104 vvcurveto
          226 callsubr
          82 -38 65 -27 -59 vvcurveto
          -27 -15 -30 -39 -18 vhcurveto
          -37 1 -40 7 -39 14 -65 145 rcurveline
          -81 hlineto
          hintmask 0100011100000000
          -13 -52 -9 -96 5 -43 -1 -2 rcurveline
          hintmask 0100010100000000
          54 -31 77 -20 68 -7 rrcurveto
          hintmask 1000010100000000
          -129 vlineto
          endchar
        </CharString>
        <CharString name="dotaccent">
          -421 549 190 hstem
          29 179 vstem
          113 739 -57 callgsubr
        </CharString>
        <CharString name="dotbelowcomb">
          125 callgsubr
        </CharString>
        <CharString name="dotbelowcomb.case">
          125 callgsubr
        </CharString>
        <CharString name="dotlessi">
          -62 callsubr
          endchar
        </CharString>
        <CharString name="dvKSPLa">
          1503 176 callgsubr
          -92 134 -27 129 -58 148 -114 144 -114 -19 callsubr
          313 166 153 169 129 167 341 160 hintmask 1001000111111110
          1 callsubr
          7 7 -2 -3 6 hvcurveto
          -7 -19 244 callgsubr
          314 136 callsubr
          11 vhcurveto
          -14 262 callsubr
          39 24 1 92 33 69 53 30 rlinecurve
          -324 -62 callgsubr
          -2199 -33 callgsubr
          hintmask 1100001011111110
          -104 callsubr
          hintmask 1001000111111110
          775 287 245 callsubr
          222 288 callgsubr
          -155 103 callsubr
          hintmask 1010000111111110
          375 -113 rmoveto
          127 callsubr
          705 hlineto
          hintmask 1010010011111110
          -86 vlineto
          -68 -1 -67 -25 -46 -50 -91 79 171 callsubr
          -753 192 155 callgsubr
        </CharString>
        <CharString name="dvKSPLa.MAR">
          1530 176 callgsubr
          -92 134 -27 129 -58 148 -114 144 -114 -19 callsubr
          342 166 149 169 129 167 253 160 -1 140 hintmask 1001000111111110
          203 callsubr
          3 -3 rlineto
          -1 vlineto
          244 callgsubr
          310 136 callsubr
          12 vhcurveto
          -14 -32 -7 -38 -44 vvcurveto
          119 -74 38 24 rlineto
          hintmask 1001000111111101
          178 callgsubr
          hintmask 1001000111111110
          101 -69 73 -70 31 vhcurveto
          52 -96 callgsubr
          269 -47 callsubr
          -2226 -33 callgsubr
          hintmask 1100001011111110
          -104 callsubr
          hintmask 1001000111111110
          804 287 245 callsubr
          218 288 callgsubr
          -151 103 callsubr
          hintmask 1010000111111110
          371 -113 rmoveto
          127 callsubr
          617 hlineto
          hintmask 1010010011111110
          -99 vlineto
          -36 -12 -32 -21 -26 -29 -90 78 171 callsubr
          -778 192 rmoveto
          -27 callsubr
          409 -173 hlineto
          21 callsubr
          -100 hlineto
          48 -34 -48 34 -58 hhcurveto
          endchar
        </CharString>
        <CharString name="e">
          -95 callsubr
          endchar
        </CharString>
        <CharString name="eacute">
          -95 callsubr
          -48 613 -64 callsubr
        </CharString>
        <CharString name="ecaron">
          -95 callsubr
          -419 613 -46 callgsubr
        </CharString>
        <CharString name="ecircumflex">
          -95 callsubr
          -332 447 -16 callgsubr
        </CharString>
        <CharString name="edieresis">
          -95 callsubr
          -339 657 -100 callgsubr
          endchar
        </CharString>
        <CharString name="edotaccent">
          -95 callsubr
          -214 657 -57 callgsubr
        </CharString>
        <CharString name="egrave">
          -95 callsubr
          -111 520 27 callgsubr
        </CharString>
        <CharString name="eight">
          -91 -22 80 527 83 hstemhm
          37 164 -144 154 156 140 -134 160 hintmask 11011000
          507 502 rmoveto
          86 -79 80 -140 -148 -83 -88 -97 -65 37 -49 58 -39 vhcurveto
          hintmask 11100100
          -74 -39 -41 -63 -67 vvcurveto
          -110 107 -73 142 141 106 74 117 85 -55 54 -70 44 vhcurveto
          hintmask 11011000
          68 38 31 58 54 vvcurveto
          -296 12 rmoveto
          18 7 23 17 20 vhcurveto
          7 16 16 3 14 hhcurveto
          51 35 -37 -51 -26 -10 -37 -38 -32 hvcurveto
          -60 32 -48 29 51 vvcurveto
          hintmask 11100100
          88 -456 rmoveto
          -64 -34 45 52 40 18 43 41 30 hvcurveto
          82 -47 31 -32 -55 vvcurveto
          -24 -6 -18 -16 -25 vhcurveto
          -7 -19 -18 -2 -15 hhcurveto
          endchar
        </CharString>
        <CharString name="ellipsis">
          278 1 -21 hstem
          97 190 116 190 116 190 cntrmask 01110000
          187 183 rmoveto
          104 callsubr
          306 hmoveto
          104 callsubr
          306 hmoveto
          104 callsubr
          endchar
        </CharString>
        <CharString name="emacron">
          -161 -15 325 callgsubr
          81.5 105.5 83 62 99 -53 53 hstemhm
          11 167 150 156 hintmask 11110110
          239 417 rmoveto
          47 -2 34 -46 8 -53 -150 -9 rcurveline
          8 45 20 44 33 21 rrcurveto
          208 -283 rmoveto
          -25 -47 -38 -13 -42 hhcurveto
          -78 -59 47 88 -9 hvcurveto
          252 -2 58 58 rlineto
          153 2 -120 60 -100 hhcurveto
          -134 -121 -109 -157 -167 140 -102 164 23 hvcurveto
          157 89 rlineto
          -378 559 rmoveto
          6 -74 rlineto
          311 hlineto
          hintmask 11101110
          47 46 rlineto
          hintmask 11110110
          81 callgsubr
        </CharString>
        <CharString name="emdash">
          368 218 102 hstem
          36 943 vstem
          36 293 rmoveto
          6 -75 rlineto
          890 hlineto
          47 51 -5 51 rlineto
          -825 hlineto
          -31 -43 -7 -20 -39 hvcurveto
          endchar
        </CharString>
        <CharString name="endash">
          -84 218 102 hstem
          36 491 vstem
          36 293 rmoveto
          6 -75 rlineto
          438 hlineto
          47 51 -4 51 rlineto
          -374 hlineto
          -31 -43 -7 -20 -39 hvcurveto
          endchar
        </CharString>
        <CharString name="enspace">
          -161 endchar
        </CharString>
        <CharString name="eogonek">
          -146 -234 93 149 -21 243 81.5 105.5 83 hstemhm
          11 167 2 119 29 156 hintmask 01111010
          239 417 rmoveto
          47 -2 34 -46 8 -53 -150 -9 rcurveline
          8 45 20 44 33 21 rrcurveto
          208 -283 rmoveto
          -25 -47 -38 -13 -42 hhcurveto
          -78 -59 47 88 -9 hvcurveto
          252 -2 58 58 rlineto
          153 2 -120 60 -100 hhcurveto
          -134 -121 -109 -157 -140 98 -94 128 -13 hvcurveto
          hintmask 11110100
          -38 -35 -19 -37 -36 vvcurveto
          -64 60 -59 90 10 vhcurveto
          126 67 -24 50 rlineto
          -79 -45 -54 22 52 vvcurveto
          52 55 42 77 46 vhcurveto
          41 25 rlineto
          endchar
        </CharString>
        <CharString name="equal">
          -81 118 89 97 89 hstem
          54 472 vstem
          54 207 rmoveto
          -89 472 89 vlineto
          -472 186 rmoveto
          -89 472 89 vlineto
          endchar
        </CharString>
        <CharString name="eth">
          -120 -27 95 319 90 hstem
          17 177 172 164 vstem
          193 714 rmoveto
          17 -24 15 -23 13 -23 -91 -40 rcurveline
          8 -40 67 -43 67 28 15 -32 12 -31 12 -30 rlinecurve
          14 -27 -30 7 -32 hhcurveto
          -115 -107 -88 -151 -168 131 -97 133 138 111 105 179 104 -39 128 -64 119 hvcurveto
          78 33 -51 99 -84 -37 -18 25 -18 24 -20 23 rlinecurve
          -120 -548 rmoveto
          64 23 67 35 29 vhcurveto
          42 -6 29 -15 34 -28 21 -101 -16 -118 -47 -51 rrcurveto
          -83 -3 -38 81 81 vvcurveto
          endchar
        </CharString>
        <CharString name="exclam">
          -312 1 -21 717 18 hstem
          71 207 vstem
          232 252 rmoveto
          46 443 -49 28 -102 -2 -56 -24 rlinecurve
          44 -445 rlineto
          -34 -187 rmoveto
          156 callsubr
          -48 -27 -34 -37 -8 -54 rrcurveto
          endchar
        </CharString>
        <CharString name="exclamdown">
          -312 -180 -21 445 69 hstem
          71 207 vstem
          232 244 rmoveto
          46 -443 -49 -28 -102 2 -56 24 rlinecurve
          44 445 rlineto
          -34 187 rmoveto
          22 43 35 28 48 14 43 -22 29 -34 13 -45 -12 -44 -40 -37 -48 -21 -48 27 -34 37 -8 54 rrcurveto
          endchar
        </CharString>
        <CharString name="f">
          -276 0 272 callgsubr
          359 callsubr
          hintmask 00101000
          16 callsubr
          hintmask 01011000
          41 callgsubr
          327 hlineto
          hintmask 10011000
          -42 callsubr
          endchar
        </CharString>
        <CharString name="f_b.liga">
          322 -18 94 -76 49 -49 65 295 113 -100 121 107 136 359 callsubr
          188 173 148 178 hintmask 0011011100000000
          563 737 rmoveto
          -268 hlineto
          -114 -99 -81 -127 hvcurveto
          -70 5 callsubr
          41 callgsubr
          321 hlineto
          hintmask 0101011100000000
          116 callgsubr
          233 -23 rlineto
          hintmask 1000111110000000
          -580 vlineto
          -1 -1 rlineto
          -24 70 76 -14 63 166 callgsubr
          -106 -77 rlineto
          hintmask 1001011100000000
          273 vlineto
          hintmask 1000111110000000
          163 callsubr
        </CharString>
        <CharString name="f_f.liga">
          109 0 272 callgsubr
          359 callsubr
          211 174 hintmask 00101100
          101 callsubr
          hintmask 01011100
          69 callgsubr
          41 callgsubr
          327 hlineto
          hintmask 10011100
          -42 callsubr
          hintmask 00101100
          475 151 71 callgsubr
          hintmask 01011100
          69 callgsubr
          41 callgsubr
          327 hlineto
          hintmask 10011100
          -42 callsubr
          endchar
        </CharString>
        <CharString name="f_h.liga">
          363 0 49 -49 737 -377 113 22 -20 124 138 359 callsubr
          219 173 127 173 hintmask 10011111
          339 hmoveto
          2 49 -26 18 -29 15 -30 10 rlinecurve
          hintmask 10101111
          268 56 vlineto
          51 64 -2 49 rlineto
          -105 hlineto
          -45 151 264 -25 rlineto
          -530 vlineto
          -26 -9 -26 -12 23 callsubr
          298 hlineto
          120 callsubr
          hintmask 10011111
          57 callgsubr
          -45 -14 -51 -28 -53 -40 rrcurveto
          hintmask 01000111
          274 vlineto
          -54 50 rlineto
          -5 hlineto
          -294 hlineto
          -114 -99 -81 -127 hvcurveto
          -70 5 callsubr
          hintmask 10011111
          41 callgsubr
          endchar
        </CharString>
        <CharString name="f_i.liga">
          69 0 49 -49 751 -391 113 25 -20 359 callsubr
          215 173 hintmask 01001100
          16 callsubr
          hintmask 10101100
          41 callgsubr
          327 hlineto
          -42 callsubr
          315 109 63 callsubr
          122 callsubr
          rlinecurve
          hintmask 10011100
          366 vlineto
          -54 48 -79 callgsubr
          -330 169 callgsubr
          endchar
        </CharString>
        <CharString name="f_j.liga">
          52 -198 -21 219 272 callgsubr
          25 -20 359 callsubr
          217 173 hintmask 10010011
          16 callsubr
          hintmask 10100111
          41 callgsubr
          327 hlineto
          hintmask 11001011
          -42 callsubr
          316 109 200 callsubr
          hintmask 10100111
          -69 -162 rmoveto
          -1 hlineto
          hintmask 10101011
          164 callsubr
          hintmask 10100111
          495 vlineto
          endchar
        </CharString>
        <CharString name="f_k.liga">
          355 -6 47 -41 49 -49 65 -65 737 -377 113 25 -20 121 138 359 callsubr
          217 173 hintmask 0001000110000000
          339 hmoveto
          hintmask 0100101110000000
          116 callgsubr
          262 -25 rlineto
          hintmask 0001000110000000
          -530 169 callgsubr
          247 210 hlineto
          hintmask 1000010110000000
          35 callsubr
          5 -49 52 -9 -110 -146 rlineto
          hintmask 0001000110000000
          429 vlineto
          -54 50 -2 -1 rlineto
          1 -2 vlineto
          -293 hlineto
          -114 -99 -81 -127 hvcurveto
          -70 5 callsubr
          hintmask 0010000110000000
          -296 vlineto
          hintmask 0001000110000000
          -23 -8 -23 -10 -20 -12 2 -35 rcurveline
          endchar
        </CharString>
        <CharString name="f_l.liga">
          75 0 49 -49 737 -377 113 126 138 359 callsubr
          215 173 hintmask 10111100
          339 hmoveto
          116 callgsubr
          260 -25 rlineto
          -530 169 callgsubr
          317 hlineto
          2 223 callgsubr
          hintmask 01001100
          603 vlineto
          -54 50 rlineto
          -1 hlineto
          -294 hlineto
          -114 -99 -81 -127 hvcurveto
          -70 5 callsubr
          hintmask 10111100
          41 callgsubr
          endchar
        </CharString>
        <CharString name="f_t.liga">
          126 0 49 -49 65 -65 751 -747 -21 377 113 359 callsubr
          207 173 hintmask 00100110
          16 callsubr
          hintmask 01001110
          41 callgsubr
          327 hlineto
          hintmask 10001110
          -42 callsubr
          409 -431 21 callgsubr
          25 callgsubr
          hintmask 00011110
          212 callgsubr
          endchar
        </CharString>
        <CharString name="five">
          -88 -23 103 200 124 153.5 92.5 hstem
          379 158 vstem
          505 650 rmoveto
          -48 -1 rlineto
          1 -360 vlineto
          -30 -329 53 -56 rlineto
          10 31 31 5 26 hhcurveto
          96 75 -36 -80 -24 -6 -28 -31 -32 hvcurveto
          -76 10 -99 47 -79 67 -53 -157 rcurveline
          -46 75 98 -24 76 hhcurveto
          160 93 101 118 140 -129 66 -112 2 hvcurveto
          -25 -29 -1 -9 -22 hvcurveto
          14 167 123 -7 23 -106 rlineto
          106 hlineto
          13 50 9 103 -3 49 rrcurveto
          endchar
        </CharString>
        <CharString name="four">
          -47 0 258.5 -101.5 101.5 411.5 -20 hstemhm
          313 167 hintmask 10110000
          550 hmoveto
          3 53 rlineto
          hintmask 01110000
          -73 13 rlineto
          91 83 vlineto
          31 30 -4 80 -110 -3 rlineto
          390 vlineto
          -63 1 -67 15 -337 -420 35 -93 rlineto
          265 hlineto
          hintmask 10110000
          -73 vlineto
          -41 -14 -47 -18 -31 -19 6 -33 rcurveline
          113 401 rmoveto
          -141 vlineto
          -149 -3 156 228 rlineto
          endchar
        </CharString>
        <CharString name="four.dnom">
          -331 273 callsubr
          hstemhm
          155 98 hintmask 10110000
          290 hmoveto
          29 vlineto
          hintmask 01110000
          -31 callsubr
          hlineto
          hintmask 10110000
          -27 vlineto
          30 callsubr
        </CharString>
        <CharString name="four.numr">
          -331 337 29 42 55.5 206.5 -20 hstem
          155 98 vstem
          290 337 rmoveto
          29 vlineto
          -31 callsubr
          -27 hlineto
          30 callsubr
        </CharString>
        <CharString name="foursuperior">
          -331 418 29 42 55.5 hstem
          155 98 vstem
          290 418 rmoveto
          29 vlineto
          -31 callsubr
          -27 hlineto
          30 callsubr
        </CharString>
        <CharString name="fraction">
          -477 13 677 hstem
          -211 652 vstem
          -145 13 128 callgsubr
          endchar
        </CharString>
        <CharString name="g">
          116 callsubr
          hstemhm
          14 134 -118 168 137 167 hintmask 1001110011000000
          84 callgsubr
          hintmask 1001101011000000
          59 callsubr
          hintmask 1100101101000000
          28 callgsubr
          hintmask 1001110011000000
          147 92 77 96 hvcurveto
          hintmask 1001101011000000
          64 callgsubr
          hintmask 1010101101000000
          168 callgsubr
          hintmask 1001101011000000
          -40 -30 -71 -21 -63 hhcurveto
          endchar
        </CharString>
        <CharString name="gbreve">
          116 callsubr
          41 93 hstemhm
          14 134 -118 168 -101 98 129 111 -100 167 hintmask 1001110001001000
          84 callgsubr
          hintmask 1001101101001000
          59 callsubr
          hintmask 1100101110001000
          28 callgsubr
          hintmask 1001110001001000
          147 92 77 96 hvcurveto
          hintmask 1001101101001000
          64 callgsubr
          hintmask 1010101110001000
          168 callgsubr
          hintmask 1001101101001000
          -40 -30 -71 -21 -63 hhcurveto
          hintmask 1001101100110000
          65 833 26 callsubr
        </CharString>
        <CharString name="gcommaaccent">
          116 callsubr
          hstemhm
          14 134 -118 168 64 124 -51 167 hintmask 1001110010100000
          84 callgsubr
          hintmask 1001101010100000
          59 callsubr
          hintmask 1100101101000000
          28 callgsubr
          hintmask 1001110010100000
          147 92 77 96 hvcurveto
          hintmask 1001101010100000
          64 callgsubr
          hintmask 1010101101000000
          168 callgsubr
          hintmask 1001101010100000
          -40 -30 -71 -21 -63 hhcurveto
          hintmask 1001101011000000
          -23 813 -87 callsubr
        </CharString>
        <CharString name="germandbls">
          -14 0 68 -65 -21 603 102 hstemhm
          82 172 122 161 -70 164 hintmask 01111000
          82 478 rmoveto
          -15 vlineto
          -29 -14 -28 -18 -25 -22 2 -55 rcurveline
          80 1 rlineto
          hintmask 10111000
          -287 vlineto
          -25 -9 -25 -11 -22 -13 2 -35 rcurveline
          242 436 hlineto
          -6 131 30 18 45 3 26 -6 rlinecurve
          61 -72 -56 -99 -49 -72 rrcurveto
          hintmask 01110100
          12 -117 150 -12 -80 vvcurveto
          -14 -6 -14 -12 -14 vhcurveto
          -41 9 -43 28 -30 27 -41 -144 rcurveline
          -16 46 54 -10 45 hhcurveto
          108 84 57 98 135 -161 34 -17 68 hvcurveto
          hintmask 01111000
          59 44 25 44 48 vvcurveto
          91 -91 86 -129 -79 -156 -47 -162 vhcurveto
          endchar
        </CharString>
        <CharString name="grave">
          -362 534 256 hstem
          19 262 vstem
          281 602 27 callgsubr
        </CharString>
        <CharString name="gravecomb">
          534 256 hstem
          -162 262 vstem
          100 602 27 callgsubr
        </CharString>
        <CharString name="gravecomb.case">
          686 224 hstem
          -156 306 vstem
          -94 910 70 callgsubr
          endchar
        </CharString>
        <CharString name="greater">
          -84 15 -21 506 -20 hstem
          363.5 149 vstem
          364 245 rmoveto
          -1 -6 -300 -153 49 -92 399 208 3 70 -402 228 -47 -88 rlineto
          endchar
        </CharString>
        <CharString name="greaterequal">
          -65 0 89 hstem
          54 488 vstem
          75 534 rmoveto
          315 -160 -1 -6 -313 -145 43 -79 399 188 8 70 -405 208 rlineto
          -67 -610 rmoveto
          488 89 -488 hlineto
          endchar
        </CharString>
        <CharString name="guillemotleft">
          -42 33 443 hstem
          54 511 vstem
          54 214 243 callsubr
          256 -79 243 callsubr
          endchar
        </CharString>
        <CharString name="guillemotright">
          -42 33 443 hstem
          54 511 vstem
          565 293 239 callsubr
          -256 79 239 callsubr
          endchar
        </CharString>
        <CharString name="guilsinglleft">
          -298 33 443 hstem
          54 255 vstem
          54 214 rmoveto
          167 -181 88 62 -98 158 92 167 -83 56 -166 -183 rlineto
          endchar
        </CharString>
        <CharString name="guilsinglright">
          -298 33 443 hstem
          54 255 vstem
          144 476 rmoveto
          -83 -56 92 -167 -99 -158 88 -62 167 181 rlineto
          79 vlineto
          endchar
        </CharString>
        <CharString name="h">
          -18 300 callgsubr
          hstem
          90 173 127 173 vstem
          315 hmoveto
          120 callsubr
          57 callgsubr
          -45 -14 -51 -28 -53 -40 rrcurveto
          274 vlineto
          9 callsubr
          -568 vlineto
          -26 -9 -26 -12 23 callsubr
          endchar
        </CharString>
        <CharString name="hungarumlaut">
          -138 534 240 hstem
          30 456 vstem
          108 534 8 callsubr
        </CharString>
        <CharString name="hyphen">
          68 callgsubr
        </CharString>
        <CharString name="hyphen.deva">
          68 callgsubr
        </CharString>
        <CharString name="i">
          -316 0 49 -49 69 -69 84 414 -20 hstemhm
          86 173 hintmask 10011000
          275 660 63 callsubr
          rlineto
          hintmask 00111000
          122 callsubr
          rrcurveto
          366 vlineto
          -54 48 -79 callgsubr
          hintmask 01011000
          -330 vlineto
          hintmask 10011000
          -26 -9 -27 -12 23 callsubr
          endchar
        </CharString>
        <CharString name="iacute">
          -62 callsubr
          308 690 -64 callsubr
        </CharString>
        <CharString name="icircumflex">
          -330 0 49 -49 68 -68 81 -81 738 -246 -20 hstemhm
          86 173 hintmask 01001100
          315 hmoveto
          hintmask 10001100
          2 49 rlineto
          hintmask 00101100
          -18 13 -20 10 -20 9 rrcurveto
          363 vlineto
          -54 48 -79 callgsubr
          hintmask 01001100
          -325 vlineto
          -25 -9 -26 -11 23 callsubr
          24 524 rmoveto
          122 114 138 -109 55 53 rlineto
          hintmask 00010100
          -131 156 rlineto
          -115 hlineto
          -134 -164 rlineto
          endchar
        </CharString>
        <CharString name="idieresis">
          -62 callsubr
          17 734 -100 callgsubr
          endchar
        </CharString>
        <CharString name="igrave">
          -62 callsubr
          245 597 27 callgsubr
        </CharString>
        <CharString name="imacron">
          -307 0 49 -49 68 -68 81 411 -20 97 99 -53 53 hstemhm
          96 173 hintmask 01011010
          13 643 rmoveto
          6 -74 rlineto
          272 hlineto
          hintmask 01010110
          47 46 rlineto
          hintmask 01011010
          -5 53 rlineto
          -207 hlineto
          -31 -43 -6 -19 -39 hvcurveto
          312 -643 rmoveto
          hintmask 10011010
          2 49 rlineto
          hintmask 00111010
          -18 13 -20 10 -20 9 rrcurveto
          363 vlineto
          -54 48 -79 callgsubr
          hintmask 01011010
          -325 vlineto
          -25 -9 -26 -11 23 callsubr
          endchar
        </CharString>
        <CharString name="infinity">
          105 140 125 -123 131 134 121 -112 113 hstemhm
          30 123 474 117 hintmask 10011100
          30 326 rmoveto
          hintmask 01011100
          -124 97 -60 79 68 57 45 66 44 vhcurveto
          hintmask 10101100
          -59 48 54 -54 80 hhcurveto
          88 99 65 131 118 -79 74 -85 -68 -57 -49 -62 -45 hvcurveto
          hintmask 10011100
          57 -49 -59 55 -81 hhcurveto
          -95 -96 -78 -125 hvcurveto
          hintmask 01011100
          217 -53 rmoveto
          -55 -39 39 56 16 6 12 8 12 hvcurveto
          54 29 55 -53 55 -74 rrcurveto
          -24 -25 -28 -13 -31 hhcurveto
          hintmask 10101100
          304 134 rmoveto
          48 28 -45 -38 -18 -6 -21 -13 -14 hvcurveto
          -55 -25 -44 51 -55 68 rrcurveto
          26 32 36 16 29 hhcurveto
          endchar
        </CharString>
        <CharString name="integral">
          -234 -178 929 hstem
          -36 499 vstem
          129 -178 rmoveto
          -47 -2 -50 18 -68 33 85 151 rcurveline
          38 -38 56 -50 68 -9 -167 556 rcurveline
          147 133 122 123 1 vhcurveto
          51 46 -14 -35 66 hvcurveto
          -85 -151 -36 37 -56 50 -68 9 rlinecurve
          167 -555 rlineto
          -147 -134 -123 -122 vhcurveto
          endchar
        </CharString>
        <CharString name="iogonek">
          -316 -278 92 -26 26 -5 -21 212 69 429 -20 hstemhm
          51 119 -84 173 hintmask 00111010
          275 660 63 callsubr
          122 callsubr
          rlinecurve
          366 vlineto
          -54 48 -79 callgsubr
          -330 169 callgsubr
          189 hlineto
          hintmask 10011100
          -99 -46 -51 -61 -59 vvcurveto
          -64 60 -58 91 10 vhcurveto
          hintmask 00111010
          126 66 rlineto
          hintmask 01011100
          -23 51 rlineto
          -80 -46 -55 22 52 vvcurveto
          49 50 41 70 43 vhcurveto
          endchar
        </CharString>
        <CharString name="j">
          -333 -198 -21 717 -20 hstem
          88 173 vstem
          276 660 200 callsubr
          -69 -162 rmoveto
          -1 hlineto
          164 callsubr
          495 vlineto
          endchar
        </CharString>
        <CharString name="k">
          -53 -6 47 -41 69 429 -20 hstemhm
          90 173 81 callsubr
          hintmask 10110000
          35 callsubr
          endchar
        </CharString>
        <CharString name="kcommaaccent">
          -53 -6 47 -41 69 429 -20 hstemhm
          90 173 14 124 81 callsubr
          hintmask 10111000
          35 callsubr
          -65 -610 -87 callsubr
        </CharString>
        <CharString name="l">
          173 callsubr
          34 callsubr
          hintmask 10010000
          -26 -9 -27 -12 23 callsubr
          endchar
        </CharString>
        <CharString name="lacute">
          173 callsubr
          34 callsubr
          hintmask 10010000
          -26 -9 -27 -12 23 callsubr
          61 771 -61 callsubr
        </CharString>
        <CharString name="lcaron">
          173 callsubr
          110 129 hintmask 10011000
          329 hmoveto
          2 49 rlineto
          hintmask 00111000
          122 callsubr
          rrcurveto
          603 vlineto
          9 callsubr
          hintmask 01011000
          -568 vlineto
          hintmask 10011000
          -26 -9 -27 -12 23 callsubr
          325 695 rmoveto
          31 callgsubr
        </CharString>
        <CharString name="lcommaaccent">
          173 callsubr
          -116 124 34 callsubr
          hintmask 10001000
          -26 -9 -27 -12 23 callsubr
          105 -148 -87 callsubr
        </CharString>
        <CharString name="less">
          -84 15 -21 506 -20 hstem
          64 149.5 vstem
          62 272 rmoveto
          4 -70 399 -208 48 92 -299 153 -1 6 298 167 -47 88 rlineto
          endchar
        </CharString>
        <CharString name="lessequal">
          -65 0 89 hstem
          54 488 vstem
          70 402 rmoveto
          8 -70 399 -188 44 79 -313 145 -1 6 314 160 -44 76 rlineto
          -423 -521 rmoveto
          -89 488 89 vlineto
          endchar
        </CharString>
        <CharString name="logicalnot">
          -69 0 278 -99 99 hstemhm
          431 107 hintmask 10100000
          54 278 rmoveto
          hintmask 01100000
          -99 377 vlineto
          hintmask 10100000
          -179 107 278 vlineto
          endchar
        </CharString>
        <CharString name="lslash">
          -229 0 49 -49 69 -69 84 398 -20 36 -20 hstemhm
          109 173 hintmask 10001100
          6 325 rmoveto
          35 -67 68 34 rlineto
          hintmask 01001100
          -223 vlineto
          hintmask 10001100
          -26 -9 -27 -12 23 callsubr
          317 hlineto
          2 49 rlineto
          hintmask 00110100
          122 callsubr
          rrcurveto
          296 vlineto
          92 46 rlineto
          56 vlineto
          hintmask 10001100
          -26 16 -66 -33 rlineto
          222 vlineto
          9 callsubr
          -260 vlineto
          endchar
        </CharString>
        <CharString name="m">
          287 300 callgsubr
          23 -20 hstemhm
          90 173 124 173 125 173 hintmask 10111100
          387 hmoveto
          230 hlineto
          3 49 -19 13 -20 11 -21 9 rlinecurve
          214 vlineto
          28 0 21 -1 17 vhcurveto
          20 9 20 6 18 89 callsubr
          247 vlineto
          3 49 -22 15 -27 12 -28 10 rlinecurve
          210 vlineto
          hintmask 11011100
          57 callgsubr
          -46 -15 -53 -29 -54 -41 -2 5 -2 4 -2 4 -35 55 -65 16 -39 1 rrcurveto
          hintmask 10111100
          -44 -14 -50 -27 -52 -38 rrcurveto
          28 -21 callsubr
          301 hlineto
          2 49 -18 13 -20 10 -20 9 rlinecurve
          282 vlineto
          20 8 19 6 17 1 rrcurveto
          43 2 25 -34 -61 vvcurveto
          endchar
        </CharString>
        <CharString name="macron">
          -218 567 99 -53 53 hstemhm
          59 364 hintmask 10100000
          59 75 callgsubr
        </CharString>
        <CharString name="minus">
          -65 207 284 callsubr
          endchar
        </CharString>
        <CharString name="multiply">
          -104 18 443 hstem
          60 437 vstem
          281 311 rmoveto
          -146 150 -75 -72 147 -151 -145 -148 72 -71 144 149 145 -150 74 74 -147 148 147 150 -73 70 rlineto
          endchar
        </CharString>
        <CharString name="n">
          -74 callsubr
          endchar
        </CharString>
        <CharString name="nacute">
          -74 callsubr
          470 690 -64 callsubr
        </CharString>
        <CharString name="ncaron">
          -74 callsubr
          99 690 -46 callgsubr
        </CharString>
        <CharString name="ncommaaccent">
          -11 300 callgsubr
          23 -20 hstemhm
          90 173 31 124 -26 173 hintmask 10110100
          319 hmoveto
          2 49 -18 13 -20 10 -20 9 rlinecurve
          279 vlineto
          21 10 21 7 19 89 callsubr
          242 vlineto
          3 223 callgsubr
          212 vlineto
          hintmask 11010100
          117 callsubr
          hintmask 10111000
          -45 -14 -53 -29 -53 -40 rrcurveto
          32 -21 callsubr
          250 -148 -87 callsubr
        </CharString>
        <CharString name="nine">
          -91 11 -21 239 108 333 -20 hstem
          27 175 175 166 vstem
          202 460 rmoveto
          49 17 49 34 16 vhcurveto
          89 16 35 -110 -113 vvcurveto
          -104 -29 -108 -72 -42 vhcurveto
          -194 46 28 -169 rlineto
          243 -16 190 162 232 vvcurveto
          171 -102 131 -170 -144 -100 -96 -128 -160 155 -101 156 63 vhcurveto
          -10 92 rlineto
          -79 -18 -47 62 76 vvcurveto
          endchar
        </CharString>
        <CharString name="notequal">
          -81 9 -21 130 89 97 89 96 -20 hstem
          54 472 vstem
          168 -12 rmoveto
          80 130 rlineto
          278 89 -223 hlineto
          60 97 rlineto
          163 89 -108 hlineto
          59 96 -50 28 -77 -124 rlineto
          -296 -89 241 hlineto
          -60 -97 rlineto
          -181 -89 126 hlineto
          -62 -100 rlineto
          endchar
        </CharString>
        <CharString name="ntilde">
          -11 300 callgsubr
          23 -20 145 114 hstemhm
          90 173 129 173 hintmask 10111100
          319 hmoveto
          2 49 -18 13 -20 10 -20 9 rlinecurve
          279 vlineto
          21 10 21 7 19 89 callsubr
          242 vlineto
          3 223 callgsubr
          212 vlineto
          hintmask 11011100
          117 callsubr
          hintmask 10111100
          -45 -14 -53 -29 -53 -40 rrcurveto
          32 -21 callsubr
          150 545 -36 callgsubr
        </CharString>
        <CharString name="numbersign">
          -40 -11 536 -515 -21 32 -21 122 85 117 83 hstemhm
          54 484 -455 484 hintmask 00111100
          127 hmoveto
          hintmask 01011100
          90 -11 20 133 rlineto
          108 hlineto
          hintmask 00111100
          -19 -122 rlineto
          hintmask 01011100
          90 -11 20 133 rlineto
          102 85 -89 hlineto
          hintmask 00111010
          18 117 rlineto
          100 83 -87 283 callgsubr
          -107 283 callgsubr
          -106 -83 94 hlineto
          -18 -117 rlineto
          hintmask 00111100
          -105 -85 92 hlineto
          212 85 rmoveto
          -108 hlineto
          18 117 rlineto
          108 hlineto
          endchar
        </CharString>
        <CharString name="o">
          170 callsubr
          hstem
          150 callsubr
          vstem
          -90 callgsubr
          endchar
        </CharString>
        <CharString name="oacute">
          170 callsubr
          hstem
          150 callsubr
          vstem
          -90 callgsubr
          153 620 -64 callsubr
        </CharString>
        <CharString name="ocircumflex">
          170 callsubr
          hstem
          150 callsubr
          vstem
          -90 callgsubr
          -131 454 -16 callgsubr
        </CharString>
        <CharString name="odieresis">
          170 callsubr
          hstem
          150 callsubr
          vstem
          -90 callgsubr
          -138 664 -100 callgsubr
          endchar
        </CharString>
        <CharString name="oe">
          168 -20 90 -85 325 callgsubr
          81.5 92.5 96 -83 83 hstemhm
          11 175 150 162 hintmask 10110110
          271 70 rmoveto
          -61 -24 77 93 67 10 58 20 28 hvcurveto
          7 9 15 4 14 hhcurveto
          60 22 -80 -97 -67 -8 -63 -29 -22 hvcurveto
          -4 -11 -8 -1 -9 hhcurveto
          hintmask 01101110
          296 347 rmoveto
          47 -2 34 -46 8 -53 -153 -9 rcurveline
          10 46 21 43 33 21 rrcurveto
          77 -429 rmoveto
          156 89 -24 57 rlineto
          -25 -48 -36 -13 -45 hhcurveto
          -82 -60 45 90 -7 hvcurveto
          257 -2 58 58 rlineto
          hintmask 10110110
          153 1 -120 60 -99 hhcurveto
          -62 -59 -23 -41 -45 hvcurveto
          43 -45 -59 21 -63 hhcurveto
          -131 -120 -92 -165 -166 122 -97 133 62 61 22 42 44 hvcurveto
          hintmask 01101110
          54 -44 74 -24 83 12 rrcurveto
          endchar
        </CharString>
        <CharString name="ogonek">
          -355 -256 92 hstem
          26 119 vstem
          253 51 rmoveto
          -150 -46 -77 -76 -73 93 callsubr
          52 55 42 77 46 vhcurveto
          endchar
        </CharString>
        <CharString name="ograve">
          170 callsubr
          hstem
          150 callsubr
          vstem
          -90 callgsubr
          90 527 27 callgsubr
        </CharString>
        <CharString name="ohungarumlaut">
          170 callsubr
          hstem
          150 callsubr
          vstem
          -90 callgsubr
          -114 459 8 callsubr
        </CharString>
        <CharString name="omacron">
          170 callsubr
          62 99 -53 53 hstemhm
          150 callsubr
          hintmask 11101100
          -90 callgsubr
          -177 566 rmoveto
          6 -74 rlineto
          311 hlineto
          hintmask 11011100
          47 46 rlineto
          hintmask 11101100
          81 callgsubr
        </CharString>
        <CharString name="one">
          -207 0 53 -53 74 -74 86 584 -20 hstemhm
          163 173 hintmask 01011000
          336 618 rmoveto
          -74 52 -252 -151 35 -66 118 48 rlineto
          hintmask 00111000
          -415 vlineto
          hintmask 01011000
          -48 -13 -54 -20 -34 -20 6 -33 rcurveline
          418 hlineto
          hintmask 10011000
          3 53 rlineto
          hintmask 01011000
          -118 21 rlineto
          endchar
        </CharString>
        <CharString name="one.dnom">
          -389 0 28 hstem
          90 107 vstem
          196 298 106 callsubr
        </CharString>
        <CharString name="one.numr">
          -389 337 28 299 -20 hstem
          90 107 vstem
          196 635 106 callsubr
        </CharString>
        <CharString name="onehalf">
          105 0 67 217 49 4 28 299 -20 hstemhm
          90 107 440 104 hintmask 10111000
          196 635 -50 callgsubr
          -68 -622 128 callgsubr
          hintmask 11011100
          497 110 rmoveto
          32 99 rlineto
          25 22 -24 -31 -27 -19 -32 -59 -55 hvcurveto
          -74 -66 -9 callgsubr
        </CharString>
        <CharString name="onequarter">
          125 273 callsubr
          210.5 28 299 -20 hstemhm
          90 107 414 98 hintmask 10111110
          196 635 -50 callgsubr
          -68 -622 128 callgsubr
          685 -75 rmoveto
          29 vlineto
          hintmask 01111110
          -31 callsubr
          hlineto
          hintmask 10111110
          -27 vlineto
          30 callsubr
        </CharString>
        <CharString name="onesuperior">
          -389 418 28 hstem
          90 107 vstem
          196 716 106 callsubr
        </CharString>
        <CharString name="ordfeminine">
          -220 192 63 92 27 43 40 113 58 hstem
          38 111 76 120 vstem
          38 378 rmoveto
          -48 44 -44 81 12 vhcurveto
          71 48 13 -30 31 -20 29 -1 rlinecurve
          92 52 -3 29 rlineto
          -1 -15 -9 -1 -11 hhcurveto
          -11 -5 7 10 hvcurveto
          119 vlineto
          37 -1 16 -6 12 vhcurveto
          -20 29 -31 21 -42 3 rrcurveto
          -55 -79 -14 -23 -55 hvcurveto
          -2 -31 4 -41 7 -30 72 2 rcurveline
          17 75 rlineto
          2 9 15 2 16 hhcurveto
          16 -7 15 -18 -38 vvcurveto
          -49 vlineto
          -136 -2 rlineto
          -37 -21 -14 -31 -26 vvcurveto
          123 -16 rmoveto
          -8 5 -4 8 10 vvcurveto
          27 35 7 30 -2 vhcurveto
          11 -1 rlineto
          -42 vlineto
          -19 -5 -27 -6 -18 -1 rrcurveto
          -130 -107 rmoveto
          -63 380 63 vlineto
          endchar
        </CharString>
        <CharString name="ordmasculine">
          -226 192 63 30 70 198 78 hstemhm
          30 124 98 123 vstemhm
          204 285 rmoveto
          89 82 60 110 110 -81 66 -88 -84 -92 -61 -113 -106 81 -66 93 hvcurveto
          9 70 rmoveto
          -39 -20 34 68 46 10 38 13 8 hvcurveto
          2 6 5 2 8 hhcurveto
          40 16 -47 -65 -52 -13 -28 -8 -5 hvcurveto
          -6 -5 -1 -7 hhcurveto
          hintmask 10111000
          -196 -100 rmoveto
          -63 374 63 vlineto
          endchar
        </CharString>
        <CharString name="oslash">
          -125 -20 90 -52 -21 407 96 -18 -20 hstemhm
          150 callsubr
          hintmask 10011100
          266 -20 rmoveto
          131 114 92 166 74 -22 59 -36 43 hvcurveto
          46 68 rlineto
          hintmask 01101100
          -88 57 -42 -62 rlineto
          15 -33 -36 8 -38 hhcurveto
          -131 -120 -92 -165 -80 28 -63 44 -45 hvcurveto
          -56 -83 86 -60 58 85 rlineto
          hintmask 10011100
          -11 30 32 -6 33 hhcurveto
          hintmask 10101100
          -80 261 rmoveto
          66 10 58 20 28 vhcurveto
          7 9 15 4 15 hhcurveto
          20 16 -9 -16 12 hvcurveto
          -116 -171 rlineto
          -1 11 0 11 11 vvcurveto
          85 -171 rmoveto
          -16 -14 5 10 -11 hvcurveto
          106 156 rlineto
          -4 0 -5 -5 vvcurveto
          -67 -8 -63 -29 -22 vhcurveto
          -4 -11 -8 -1 -9 hhcurveto
          endchar
        </CharString>
        <CharString name="otilde">
          170 callsubr
          123 114 hstem
          150 callsubr
          vstem
          -90 callgsubr
          -167 475 -36 callgsubr
        </CharString>
        <CharString name="p">
          -59 -202 49 -49 61 135 84 -56 -21 372 121 4 -20 hstemhm
          84 173 142 184 hintmask 01100110
          350 -202 rmoveto
          hintmask 10010110
          2 49 -29 16 -33 14 -33 13 rlinecurve
          111 vlineto
          hintmask 01101011
          -5 25 24 -2 22 hhcurveto
          167 88 129 138 135 -83 118 -138 -23 hvcurveto
          hintmask 01100110
          -105 -78 rlineto
          37 vlineto
          -53 47 rlineto
          1 -1 vlineto
          -69 -2 -70 -13 -58 -22 5 -48 rcurveline
          73 -14 rlineto
          -540 360 callsubr
          hintmask 01101011
          285 575 rmoveto
          61 33 -68 -73 -60 -22 -62 -34 -32 hvcurveto
          -29 -2 -30 4 -27 7 rrcurveto
          274 vlineto
          8 17 16 4 15 hhcurveto
          endchar
        </CharString>
        <CharString name="paragraph">
          32 -165 56 698 101 hstem
          0 180 108 109 74 109 vstem
          471 -166 rmoveto
          109 1 82 hlineto
          1 51 -83 10 rlineto
          685 vlineto
          80 -4 7 69 -341 44 rlineto
          -229 14 -97 -118 -113 vvcurveto
          -94 68 -93 113 -33 vhcurveto
          38 37 rlineto
          -25 42 -14 39 46 vvcurveto
          81 43 56 65 25 vhcurveto
          -668 vlineto
          -27 -6 -50 -13 -33 -15 6 -42 rcurveline
          104 -1 109 757 hlineto
          74 -4 rlineto
          endchar
        </CharString>
        <CharString name="parenleft">
          -303 676 -20 hstem
          31 175 vstem
          319 -98 rmoveto
          -69 137 -44 132 136 vvcurveto
          122 38 121 78 126 vhcurveto
          -100 56 rlineto
          -132 -136 -59 -143 -150 vvcurveto
          -166 70 -153 116 -139 vhcurveto
          endchar
        </CharString>
        <CharString name="parenright">
          -303 676 -20 hstem
          152 175 vstem
          327 303 rmoveto
          150 -59 143 -132 136 vhcurveto
          -100 -56 rlineto
          78 -126 38 -121 -122 vvcurveto
          -136 -44 -132 -69 -137 vhcurveto
          102 -57 rlineto
          116 139 70 153 166 vvcurveto
          endchar
        </CharString>
        <CharString name="partialdiff">
          -61 -33 93 307 107 hstem
          55 161 180 160 vstem
          296 -33 rmoveto
          152 108 125 198 196 -102 197 -253 78 hvcurveto
          -35 -77 111 -39 75 -99 30 -116 rlinecurve
          -100 44 rlineto
          -123 -104 -119 -143 -139 93 -106 148 hvcurveto
          2 93 rmoveto
          -59 8 -25 60 2 64 4 85 57 91 116 -1 rrcurveto
          2 -17 1 -18 -18 vvcurveto
          -107 -34 -103 -64 -44 vhcurveto
          endchar
        </CharString>
        <CharString name="percent">
          170 -20 89 -68 -21 251 90 -56 89 161 92 hstemhm
          42 102 111 106 108 103 111 105 hintmask 0110111110000000
          216 -30 rmoveto
          455 574 -71 58 -456 -573 rlineto
          hintmask 0101111110000000
          406 vmoveto
          28 10 30 17 19 vhcurveto
          57 17 27 -47 -49 vvcurveto
          -30 -10 -31 -20 -18 vhcurveto
          -56 -9 -25 44 46 vvcurveto
          62 -170 rmoveto
          90 65 75 91 95 -71 81 -89 -89 -70 -82 -92 -93 75 -75 89 hvcurveto
          hintmask 1010111110000000
          366 -115 rmoveto
          29 10 28 17 20 vhcurveto
          57 17 27 -46 -50 vvcurveto
          -30 -10 -31 -20 -18 vhcurveto
          -56 -8 -25 43 46 vvcurveto
          61 -170 rmoveto
          90 65 76 91 94 -71 80 -89 -89 -70 -81 -91 -95 75 -74 89 hvcurveto
          endchar
        </CharString>
        <CharString name="period">
          -371 -42 193 hstem
          96 194 vstem
          290 66 33 callsubr
        </CharString>
        <CharString name="period.deva">
          -371 -42 193 hstem
          96 194 vstem
          290 66 33 callsubr
        </CharString>
        <CharString name="periodcentered">
          -379 182 193 hstem
          30 194 vstem
          224 290 33 callsubr
        </CharString>
        <CharString name="perthousand">
          534 -23 88 163 91 -54 88 162 92 hstemhm
          42 102 113 104 108 102 113 104 45 102 113 104 hintmask 1101111111000000
          232 -38 rmoveto
          409 576 -70 53 -408 -574 rlineto
          hintmask 1011111000000000
          51 336 rmoveto
          -48 -22 53 42 23 8 22 13 17 hvcurveto
          3 9 8 2 7 hhcurveto
          40 28 -42 -50 -22 -5 -26 -19 -20 hvcurveto
          -1 -6 -6 -1 -7 hhcurveto
          -9 -88 rmoveto
          236 callgsubr
          -95 75 -75 88 hvcurveto
          438 -200 rmoveto
          -46 -26 47 46 hvcurveto
          hintmask 1100001100000000
          20 5 25 16 19 vhcurveto
          365 callgsubr
          -23 -5 -25 -19 -20 hvcurveto
          hintmask 1011111000000000
          -1 -6 -5 -1 -6 hhcurveto
          -11 -88 rmoveto
          hintmask 1100001100000000
          236 callgsubr
          hvcurveto
          hintmask 1011111000000000
          -95 75 -75 88 vhcurveto
          hintmask 1100000011000000
          375 88 rmoveto
          -46 -26 47 46 19 5 26 16 19 hvcurveto
          365 callgsubr
          -22 -5 -26 -19 -20 hvcurveto
          -1 -6 -5 -1 -6 hhcurveto
          -11 -88 rmoveto
          236 callgsubr
          -95 75 -75 88 hvcurveto
          endchar
        </CharString>
        <CharString name="pi">
          111 -18 491 -475 475 -454 -21 372 103 hstemhm
          210.5 170 91 274.5 hintmask 00111100
          30 374 rmoveto
          36 -54 95 65 53 -3 -7 -188 -2 -52 -2 -59 -12 -20 rlinecurve
          -34 25 -34 28 -30 27 -51 -126 rcurveline
          hintmask 10001100
          -25 64 61 -10 42 hhcurveto
          140 25 106 143 4 hvcurveto
          hintmask 00011100
          5 141 87 -4 rlineto
          hintmask 01001100
          3 -335 52 -35 128 2 rlineto
          hintmask 00011100
          -32 359 88 -5 rlineto
          hintmask 01001100
          39 29 -4 90 rlineto
          -585 hlineto
          hintmask 00111100
          -39 -11 -65 -54 -25 -34 rrcurveto
          endchar
        </CharString>
        <CharString name="plus">
          -91 207 99 -99 284 hstemhm
          231 107 hintmask 10100000
          338 306 rmoveto
          hintmask 01100000
          185 -107 vlineto
          hintmask 10100000
          -185 -177 vlineto
          hintmask 01100000
          -99 177 -183 107 183 178 vlineto
          hintmask 10100000
          99 vlineto
          endchar
        </CharString>
        <CharString name="plusminus">
          -107 0 97 63 450 -273 97 hstemhm
          56 439 -272 107 hintmask 10101000
          330 434 rmoveto
          hintmask 11001000
          176 -107 vlineto
          hintmask 10101000
          -176 -169 -97 169 vlineto
          hintmask 11001000
          -177 107 vlineto
          hintmask 10101000
          177 170 97 vlineto
          hintmask 10110000
          -444 -337 rmoveto
          -97 439 97 vlineto
          endchar
        </CharString>
        <CharString name="product">
          166 638 97 hstem
          140 181 179 181 vstem
          24 706 rmoveto
          12 -68 rlineto
          104 -659 hlineto
          -52 callgsubr
          349 hlineto
          1 53 -90 14 rlineto
          671 179 -738 271 vlineto
          1 53 -91 15 rlineto
          670 78 vlineto
          44 44 -4 53 rlineto
          -670 hlineto
          -31 -37 -9 -20 -37 hvcurveto
          endchar
        </CharString>
        <CharString name="q">
          -78 -202 49 -49 77 -77 316 -104 -21 421 91 hstemhm
          19 181 142 173 hintmask 10011010
          567 -202 rmoveto
          2 49 rlineto
          hintmask 01011110
          -17 12 -18 10 -19 9 rrcurveto
          573 vlineto
          28 -54 -86 22 -72 hhcurveto
          -183 -101 -121 -142 -131 85 -121 138 3 hvcurveto
          100 74 rlineto
          -188 vlineto
          hintmask 10011010
          -33 -9 -38 -15 -31 -18 2 -35 rcurveline
          hintmask 00101110
          56 316 rmoveto
          -63 -35 65 77 59 19 62 37 33 hvcurveto
          31 1 29 -6 26 -12 rrcurveto
          -271 vlineto
          -5 -16 -15 -3 -13 hhcurveto
          endchar
        </CharString>
        <CharString name="question">
          -20 1 -21 629 110 hstem
          373 176 vstem
          212 457 rmoveto
          55 146 rlineto
          4 16 17 2 17 hhcurveto
          38 -17 18 -35 -35 vvcurveto
          -98 -147 -22 1 -153 vhcurveto
          144 hlineto
          21 120 157 7 143 vvcurveto
          113 -97 87 -145 -99 -70 -39 -42 -49 vhcurveto
          1 -2 -3 -28 11 -92 13 -59 rlinecurve
          107 -392 rmoveto
          156 callsubr
          -48 -27 -34 -37 -8 -54 rrcurveto
          endchar
        </CharString>
        <CharString name="questiondown">
          -20 -249 110 629 -20 hstem
          88 176 vstem
          425 13 rmoveto
          -55 -146 rlineto
          -4 -16 -17 -2 -17 hhcurveto
          -38 17 -18 35 35 vvcurveto
          98 147 22 -1 153 vhcurveto
          -144 hlineto
          -21 -120 -157 -7 -143 vvcurveto
          -113 97 -87 145 99 70 39 42 49 vhcurveto
          -1 2 3 28 -11 92 -13 59 rlinecurve
          -107 392 rmoveto
          -22 43 -35 28 -48 14 -43 -22 -29 -34 -13 -45 12 -44 40 -37 48 -21 48 27 34 37 8 54 rrcurveto
          endchar
        </CharString>
        <CharString name="quotedbl">
          -219 671 -20 hstem
          11 428 vstem
          109 402 234 callsubr
          327 -35 234 callsubr
          endchar
        </CharString>
        <CharString name="quotedblbase">
          -184 -157 312 300 callsubr
          -157 rmoveto
          hintmask 10110000
          -31 callgsubr
          257 -47 rmoveto
          -31 callgsubr
          endchar
        </CharString>
        <CharString name="quotedblleft">
          -185 443 312 hstemhm
          24 125 -125 412 -193 125 hintmask 10100000
          179 755 rmoveto
          hintmask 11010000
          -1 callgsubr
          181 47 rmoveto
          -1 callgsubr
          endchar
        </CharString>
        <CharString name="quotedblright">
          -184 490 -20 300 callsubr
          443 rmoveto
          hintmask 10110000
          -31 callgsubr
          257 -47 rmoveto
          -31 callgsubr
          endchar
        </CharString>
        <CharString name="quoteleft">
          -404 443 312 hstemhm
          24 125 -125 193 hintmask 10100000
          179 755 rmoveto
          hintmask 11000000
          -1 callgsubr
          endchar
        </CharString>
        <CharString name="quoteright">
          -404 490 -20 337 callgsubr
          443 rmoveto
          hintmask 10100000
          -31 callgsubr
          endchar
        </CharString>
        <CharString name="quotesinglbase">
          -404 -157 312 337 callgsubr
          -157 rmoveto
          hintmask 10100000
          -31 callgsubr
          endchar
        </CharString>
        <CharString name="quotesingle">
          -475 499 -20 hstem
          -27 186 vstem
          70 464 rmoveto
          52 70 40 119 -3 80 -111 16 rcurveline
          -45 -47 4 -41 -2 -83 -32 -79 rlinecurve
          endchar
        </CharString>
        <CharString name="r">
          127 callgsubr
          -70 callsubr
          endchar
        </CharString>
        <CharString name="racute">
          127 callgsubr
          -70 callsubr
          408 690 -64 callsubr
        </CharString>
        <CharString name="radical">
          114 -95 568 hstem
          36 667 vstem
          291 473 rmoveto
          -107 hlineto
          -148 -132 63 -87 93 61 122 -410 42 -2 75 5 38 14 rlinecurve
          234 786 -123 43 -191 -645 rlineto
          endchar
        </CharString>
        <CharString name="rcaron">
          127 callgsubr
          -70 callsubr
          37 690 -46 callgsubr
        </CharString>
        <CharString name="rcommaaccent">
          127 callgsubr
          -109 124 -70 callsubr
          hintmask 01010100
          110 -148 -87 callsubr
        </CharString>
</ttFont>
